
<svg width="74px" height="74px" viewBox="0 0 74 74" version="1.1" xmlns="http://www.w3.org/2000/svg" xmlns:xlink="http://www.w3.org/1999/xlink">
    <!-- Generator: Sketch 43.1 (39012) - http://www.bohemiancoding.com/sketch -->
    <desc>Created with Sketch.</desc>
    <defs></defs>
    <g id="Page-1" stroke="none" stroke-width="1" fill="none" fill-rule="evenodd">
        <g id="UP-Web-logotype-New1" transform="translate(-6.000000, -6.000000)">
            <g id="Merged">
                <circle id="Oval" fill="#0A4424" transform="translate(43.336180, 42.894640) rotate(-76.048524) translate(-43.336180, -42.894640) " cx="43.33618" cy="42.89464" r="35.2999905"></circle>
                <path d="M43.3,79.3 C38.4,79.3 33.6,78.3 29.1,76.4 C24.8,74.6 20.9,71.9 17.5,68.6 C14.2,65.3 11.5,61.4 9.7,57 C7.8,52.5 6.8,47.7 6.8,42.8 C6.8,37.9 7.8,33.1 9.7,28.6 C11.5,24.3 14.2,20.4 17.5,17 C20.8,13.6 24.7,11 29.1,9.2 C33.6,7.3 38.4,6.3 43.3,6.3 C48.2,6.3 53,7.3 57.5,9.2 C61.8,11 65.7,13.7 69.1,17 C72.4,20.3 75.1,24.2 76.9,28.6 C78.8,33.1 79.8,37.9 79.8,42.8 C79.8,47.7 78.8,52.5 76.9,57 C75.1,61.3 72.4,65.2 69.1,68.6 C65.8,71.9 61.9,74.6 57.5,76.4 C53,78.3 48.2,79.3 43.3,79.3 Z M43.3,8.7 C38.7,8.7 34.2,9.6 30,11.4 C25.9,13.1 22.3,15.6 19.1,18.7 C16,21.8 13.5,25.5 11.8,29.6 C10,33.8 9.1,38.3 9.1,42.9 C9.1,47.5 10,52 11.8,56.2 C13.5,60.3 16,63.9 19.1,67.1 C22.2,70.2 25.9,72.7 30,74.4 C34.2,76.2 38.7,77.1 43.3,77.1 C47.9,77.1 52.4,76.2 56.6,74.4 C60.7,72.7 64.3,70.2 67.5,67.1 C70.6,64 73.1,60.3 74.8,56.2 C76.6,52 77.5,47.5 77.5,42.9 C77.5,38.3 76.6,33.8 74.8,29.6 C73.1,25.5 70.6,21.9 67.5,18.7 C64.4,15.6 60.7,13.1 56.6,11.4 C52.4,9.6 47.9,8.7 43.3,8.7 Z" id="Shape" fill="#F5AB29" fill-rule="nonzero"></path>
                <circle id="Oval" fill="#0A4424" transform="translate(43.336180, 42.894640) rotate(-76.048524) translate(-43.336180, -42.894640) " cx="43.33618" cy="42.89464" r="35.2999905"></circle>
                <circle id="Oval" fill="#8E1538" transform="translate(43.334420, 42.896360) rotate(-76.714204) translate(-43.334420, -42.896360) " cx="43.33442" cy="42.89636" r="25.3990637"></circle>
                <path d="M43.3,69.3 C39.7,69.3 36.3,68.6 33,67.2 C29.8,65.9 27,64 24.6,61.5 C22.2,59.1 20.3,56.2 18.9,53.1 C17.5,49.8 16.8,46.4 16.8,42.8 C16.8,39.2 17.5,35.8 18.9,32.5 C20.2,29.3 22.1,26.5 24.6,24.1 C27,21.7 29.9,19.8 33,18.4 C36.3,17 39.7,16.3 43.3,16.3 C46.9,16.3 50.3,17 53.6,18.4 C56.8,19.7 59.6,21.6 62,24.1 C64.4,26.6 66.3,29.4 67.7,32.5 C69.1,35.8 69.8,39.2 69.8,42.8 C69.8,46.4 69.1,49.8 67.7,53.1 C66.4,56.3 64.5,59.1 62,61.5 C59.6,63.9 56.7,65.8 53.6,67.2 C50.3,68.6 46.9,69.3 43.3,69.3 Z M43.3,18.5 C40,18.5 36.8,19.1 33.8,20.4 C30.9,21.6 28.3,23.4 26,25.6 C23.8,27.8 22,30.4 20.8,33.4 C19.5,36.4 18.9,39.6 18.9,42.9 C18.9,46.2 19.5,49.4 20.8,52.4 C22,55.3 23.8,57.9 26,60.2 C28.2,62.4 30.8,64.2 33.8,65.4 C36.8,66.7 40,67.3 43.3,67.3 C46.6,67.3 49.8,66.7 52.8,65.4 C55.7,64.2 58.3,62.4 60.6,60.2 C62.8,58 64.6,55.4 65.8,52.4 C67.1,49.4 67.7,46.2 67.7,42.9 C67.7,39.6 67.1,36.4 65.8,33.4 C64.6,30.5 62.8,27.9 60.6,25.6 C58.4,23.4 55.8,21.6 52.8,20.4 C49.8,19.1 46.6,18.5 43.3,18.5 Z" id="Shape" fill="#F5AB29" fill-rule="nonzero"></path>
                <circle id="Oval" fill="#8E1538" transform="translate(43.334420, 42.896360) rotate(-76.714204) translate(-43.334420, -42.896360) " cx="43.33442" cy="42.89636" r="25.3990637"></circle>
                <path d="M20.1,16.8 L17.7,16.3 C17.7,16.3 17.4,16.1 17.2,16.1 C17.1,16.1 16.6,16.1 16.4,16.5 C16.4,16.5 14.6,16.1 14.4,16 C14.2,15.9 12.5,15.2 12.3,15.2 C12.1,15.2 11.4,15.1 11.5,15.4 C11.6,15.7 12.1,16.5 12.5,16.6 C12.8,16.7 14.1,17.2 14.1,17.2 C14.1,17.2 13.5,17.6 13.6,17.8 C13.6,18 14.7,18.6 15.4,18.9 C16.1,19.2 17.9,19.7 17.9,19.7 C17.9,19.7 17.2,20.5 19.5,21.1 L21.8,21.7 C21.8,21.7 20.7,22.1 22,22.7 C23.3,23.3 23.8,23.3 23.8,23.3 L24,23.6 C24,23.6 23.6,24.3 23.7,24.4 C23.9,24.5 25.8,25.5 27,25.8 C28.2,26.1 28.8,26.3 28.8,26.3 C28.8,26.3 27.9,27 28.6,27.4 C29.3,27.8 29.7,27.9 29.7,27.9 L29.8,28.5 C29.8,28.5 29.5,28.7 29.6,28.9 C29.7,29.1 30.3,29.6 30.9,29.6 C31.5,29.6 31.8,29.8 31.8,29.8 C31.8,29.8 31.6,30 31.5,30 C31.4,30 30.5,30.3 30.6,30.6 C30.8,30.9 31.1,31.4 31.6,31.4 C32,31.4 32.4,31.5 32.4,31.5 L32.5,31.8 C32.5,31.8 32.7,32.4 33.5,32.4 L34.6,32.4 L35.1,32.5 C35.1,32.5 34.7,33.3 34.8,33.3 C34.9,33.4 35,33.6 35.4,33.6 C35.8,33.6 36.2,33.5 36.2,33.5 C36.2,33.5 36.7,33.3 36.7,33.4 C36.7,33.5 36.5,33.7 37.1,33.8 C37.6,33.9 37.7,33.8 38,33.6 C38.3,33.4 38.7,33.3 38.7,33.3 C38.7,33.3 39,33.9 39,34.1 C39,34.3 38.4,36.6 38.2,37 C38,37.4 37.7,37.8 37.5,38.1 C37.3,38.3 36.7,39.2 36.7,39.2 L47.5,39.5 C47.5,39.5 45.7,34.7 45.6,34.3 C45.5,33.8 45.8,33.5 45.8,33.5 C45.8,33.5 46.8,33.6 46.9,33.7 C47,33.8 47.7,34.8 48.3,34.4 L48.9,34 C48.9,34 50.1,34.3 50.2,34.2 C50.4,34.1 50.6,34 50.6,33.8 C50.6,33.6 50.7,33.2 50.7,33.2 C50.7,33.2 51.3,33 51.4,33 C51.5,33 52.8,32.9 52.5,32.7 C52.2,32.5 51.6,31.6 51.6,31.6 L53.6,31.7 L53.9,31.3 L54,30.4 L54.6,30.4 L55.9,29.7 L55,29 L55.7,28.9 L56.8,28.4 L56.8,28 L56.7,27.4 L58.1,26.7 C58.1,26.7 58.4,25.8 58.3,25.7 C58.2,25.7 59.7,25.5 59.7,25.5 L60.5,25.1 L60.8,24.4 L62.3,24 L63.5,23.4 L63.7,22.5 L66,22 C66,22 67,21.6 67.7,20.7 L68.4,20.5 L69.3,20.4 L69.8,20 C69.8,20 71.3,19.6 71.5,19.4 C71.7,19.2 71.8,18.8 71.8,18.8 L71.6,18.4 L72.7,17.8 C72.7,17.8 74.1,17.3 74.2,17.2 L74.8,16.4 L74.1,16.4 C74.1,16.4 71.7,16.8 71.6,16.8 C71.5,16.8 69.7,17.3 69.7,17.3 C69.7,17.3 66.4,17.5 65.9,17.6 C65.4,17.7 64.4,17.9 64.1,18 C63.8,18.1 61.9,18.5 61.8,18.5 C61.7,18.5 60.9,18.2 60.9,18.2 L59.8,18.3 L57.2,18.8 L55,19.2 L54.4,19.3 L54.7,18.8 C54.7,18.8 53.3,19.1 53,19.2 C52.7,19.3 51.7,19.4 51.7,19.4 C51.7,19.4 50.1,19.7 49.8,19.8 C49.4,19.9 48.3,20.4 48.2,20.9 C48.1,21.4 47.9,23 47.9,23.4 C47.9,23.8 47.9,25.3 47.8,25.7 C47.6,26 46.9,27.9 46.1,27.1 C45.3,26.4 45.2,26.3 45.1,25.6 C45,24.9 44.9,23.7 44.9,23.7 L44.9,22.4 C44.9,22.2 44.9,21.4 45.4,21.2 L45.9,21 C45.9,21 44.3,20 43.3,19.7 C42.3,19.4 41,19.6 40.6,19.7 C40.2,19.8 39.5,20.2 39.4,20.3 C39.3,20.4 39.1,21.3 39.1,21.3 C39.1,21.3 39.6,21.1 39.8,21.1 C40,21.1 41,21.8 41.1,22 C41.2,22.2 41.2,22.4 41.2,22.4 C41.2,22.4 41.3,23.3 41,23.8 C40.7,24.3 40.2,25.8 40.2,25.8 C40.2,25.8 39.6,27 39.5,27.2 C39.4,27.4 38.6,27.9 38.2,27.5 C37.8,27.1 37.1,26.5 37.2,24.8 C37.3,23 37.2,21.1 36.6,20.5 C36,19.9 35.8,19.4 33.3,19.3 L32.4,19 L31.5,18.8 L31,18.5 L30.4,18.5 L29.9,18.3 L29.7,18.7 C29.7,18.7 28.9,18.3 28,18.3 L27.6,18.2 C27.6,18.2 26.3,18.2 26.2,18 L26,17.8 L25.6,17.7 L23.9,17.3 L23.1,17.2 L22.7,17.5 L21.8,17.1 L21,17.1 L20.1,16.8" id="Shape" fill="#8E1538"></path>
                <g id="Group" transform="translate(10.000000, 15.000000)">
                    <g id="Shape">
                        <g fill="#F5AB29">
                            <path d="M30.7,12 C30.7,12.4 30.4,12.3 30.4,12.6 C30.5,12.6 30.5,12.7 30.6,12.7 C30.7,12.6 30.7,12.5 30.9,12.5 C30.9,12.6 31,12.6 31,12.7 C31.1,12.7 31.1,12.6 31.2,12.7 C31.1,12.3 30.8,12.2 30.7,12 Z"></path>
                            <path d="M31.4,12.6 C31.2,12.7 31,12.8 31,13.1 C31.4,13.1 31.9,12.6 31.6,12.2 C31.5,12.3 31.5,12.5 31.4,12.6 Z"></path>
                            <path d="M31,5.3 C30.7,5.4 30.9,4.9 30.6,5 C30.4,5 30.6,5.3 30.5,5.3 L30.1,5.3 C30.1,5.7 30.5,5.4 30.8,5.4 C30.9,5.4 30.7,5.8 30.9,5.8 C31.1,5.7 31,5.5 31,5.3 Z"></path>
                            <path d="M32.4,12.3 C32.3,12.6 32.1,13 31.9,13.2 C32.4,13.2 32.6,12.8 32.6,12.3 L32.4,12.3 Z"></path>
                            <path d="M33.8,18.3 C33.5,18.3 33.6,18.6 33.3,18.6 C33.3,18.5 33.3,18.4 33.2,18.4 L33.2,18.7 C33.3,18.8 33.2,19.1 33.2,19.2 C33.5,19.1 33.6,18.8 33.8,18.6 C33.9,18.5 33.7,18.4 33.8,18.3 Z"></path>
                            <path d="M30,18.6 C29.9,18.7 29.9,18.8 29.8,18.8 C29.8,18.7 29.6,18.7 29.6,18.5 C29.6,18.6 29.4,18.5 29.4,18.6 C29.5,18.8 29.7,18.9 29.8,19.1 C29.7,19.1 29.6,19.2 29.5,19.2 C29.5,19.4 29.7,19.3 29.7,19.4 C29.7,19.2 29.8,19.1 30,19.1 C29.9,19 30.2,18.8 30,18.6 Z"></path>
                            <path d="M30.5,19 L30.6,19.1 C30.9,19.2 30.8,19.6 30.9,19.9 C31,19.8 31.1,19.6 31.2,19.5 C31.1,19.4 31,19.4 31,19.3 C31,19.1 31.1,19.1 31,18.9 C30.7,18.9 30.7,18.6 30.5,18.5 C30.5,18.6 30.6,18.8 30.5,19 Z"></path>
                            <path d="M34.6,18.3 C34.5,18.4 34.5,18.5 34.4,18.6 C34.3,18.4 34.2,18.3 34.1,18.2 C34,18.6 34.3,18.8 34.4,19 C34.5,18.8 34.6,18.6 34.7,18.5 C34.7,18.4 34.7,18.3 34.6,18.3 Z"></path>
                            <path d="M65,1.4 C64.3,1.2 63.5,1.6 62.8,1.6 C62.3,1.7 61.8,1.6 61.4,1.7 C60.9,1.8 60.5,2.3 59.7,2.1 C59.4,2.4 58.8,2.3 58.2,2.4 L58.2,2.4 L56.8,2.6 C56.1,2.7 55.3,2.7 54.7,2.9 C55.3,3.2 56.5,2.7 57.2,2.7 C57.3,2.6 57.5,2.6 57.7,2.6 C57.8,2.5 58.2,2.5 58.3,2.6 L58.5,2.6 C58.3,3.3 56.9,2.8 56.8,3.5 C57.4,3.3 58,3.3 58.6,3 C58.8,2.9 59,2.7 59.2,2.6 C59.5,2.5 60,2.5 60.4,2.4 C61.8,2.1 63.1,1.5 64.6,1.7 C64,2.5 62.8,2.7 61.6,2.9 C61.7,3 62,2.9 62,3.1 C61,3.1 60.3,3.6 59.2,3.6 C59.1,3.7 58.7,3.7 58.6,3.6 C58.4,3.6 58.3,3.5 58.1,3.6 C57.9,3.8 58.5,3.8 58.3,4 C57.4,4.1 56.7,4.3 55.7,4.3 C55.5,4.4 55.1,4.4 54.9,4.3 L54.7,4.3 C54.6,4.4 54.8,4.4 54.8,4.6 C54,4.6 53.6,4.9 52.8,5 C52.6,5 52.2,4.9 52.1,5 C51.7,5.2 51,5.2 50.4,5.3 C50.7,4.8 51.4,4.5 52.1,4.3 C52.4,4.2 53.1,4.3 52.9,3.9 C53,3.9 53.3,4 53.3,3.9 C54.2,3.9 54.9,3.6 55.8,3.6 C55.9,3.5 56.6,3.7 56.5,3.5 C56.3,3.3 55.8,3.5 55.4,3.5 C55.4,3.6 55,3.6 55,3.5 C54.2,3.6 53.7,3.8 53,4 L52.9,4 C52.4,4.1 52,4.2 51.4,4.2 C52,3.4 53.8,3.7 54.6,3.2 L54.2,3.2 C53.2,3.2 52.6,3.6 51.7,3.6 C51.3,3.1 50.3,3.7 49.7,3.3 C49.4,3.5 49,3.7 48.5,3.7 C48.2,3.8 47.7,3.7 47.3,3.7 C46.4,4.1 45.3,4.2 44.4,4.4 C44.4,4.2 44.7,4.2 44.6,3.9 C43.5,4.1 42.9,4.7 41.7,4.5 L39.7,4.8 C38.7,5.1 37.7,5.4 37.5,6.6 C37.4,6.8 37.4,7.2 37.5,7.3 L37.5,7.9 L37.5,8.3 L37.5,9.5 C37.4,10.7 37.3,11.9 36.3,12.2 C36.2,12.3 35.9,12.3 35.8,12.2 C35.3,12.1 35.1,11.6 34.8,11.2 C34.8,11 35.1,11.1 35.1,11 C34.8,10.5 34.7,9.9 34.7,9.1 L34.7,8.5 C34.7,7.8 34.8,7.2 34.8,6.6 C35.1,6.3 35.7,6.3 36,5.9 C35,5.8 34.5,5.3 33.7,4.9 C33.1,4.6 32.6,4.4 31.7,4.4 L31,4.4 C29.6,4.5 28.4,5.3 28.7,6.6 C28.9,6.5 29.1,6.3 29.4,6.3 C29.9,6.3 30.3,6.7 30.6,6.9 C30.6,7 30.7,7.1 30.6,7.2 C30.7,7.3 30.7,7.6 30.6,7.7 C30.6,8.6 29.9,9.4 29.7,10.2 C29.6,10.4 29.7,10.6 29.6,10.8 C29.5,11 29.2,11.1 29.1,11.3 C28.9,11.7 29,12.4 28.4,12.5 C27.2,12.4 26.9,11.4 26.8,10.1 L26.8,9.1 L26.8,8.5 L26.8,8.1 L26.8,7.4 C26.8,6.1 26.4,5 25.4,4.7 C25.4,4.7 24.6,4.2 23.5,4.2 C23,4.2 22,4 21.9,3.7 C21.4,3.8 21,3.5 20.6,3.5 L20.1,3.5 C19.8,3.4 19.7,3 19.4,3.1 C19.3,3.2 19.5,3.4 19.4,3.5 C18.7,3.4 18.1,3.1 17.3,3.1 C17,3.1 16.6,3.2 16.3,3.1 C16.1,2.8 15.6,2.7 15.1,2.7 C15.3,3.2 16.4,3.1 17.3,3.3 C17.9,3.4 18.2,3.8 18.7,3.5 C19.2,3.7 19.8,3.9 19.9,4.5 C19.1,4.6 18.6,4 17.9,4.3 C18,4.5 18.6,4.6 18.9,4.5 C18.9,4.9 19.6,4.6 19.7,4.8 C19.5,4.9 19.3,5 19.2,5.1 C18.9,4.7 18.3,5 17.8,4.9 C17.2,4.8 16.9,4 15.8,4.4 C15.6,4.1 15.1,4 15,3.7 C13.9,3.7 13.1,3.4 12.9,2.5 C13.7,2.4 14.2,2.9 14.9,2.7 C14.3,2.4 13.5,2.3 12.8,2.2 C12.6,2.3 12.6,2.5 12.3,2.6 C12.1,2.6 11.8,2.3 11.5,2.3 C11.3,2.3 11.2,2.4 11,2.3 C10.8,2.3 10.6,2 10.3,2.2 C10.1,2 9.9,1.8 9.5,1.9 C9.4,1.8 9.3,1.7 9,1.7 L9,1.7 L7.9,1.5 C7.4,1.5 6.5,0.8 6.3,1.5 C6.4,1.4 6.9,1.4 7,1.5 C7.6,1.9 8.5,2 9.3,2.2 C9.6,2.3 10.1,2.5 10.5,2.5 C10.7,2.5 11,2.4 11.2,2.5 C11.6,2.6 12,3 12.5,2.9 C12.5,3.2 13,3.3 13,3.5 C12.6,3.8 12,3.3 11.5,3.3 L11,3.3 C10.4,3.2 9.6,2.4 8.9,3.1 C10.7,3.4 12.4,3.8 14.1,4.2 C14,4.7 14.6,4.6 14.6,5.2 C14.4,5.1 14,5 13.9,5.3 C14.2,5.3 14.6,5.2 14.8,5.3 C15,5.3 15.1,5.4 15,5.6 L14.9,5.6 C14.8,5.7 14.4,5.7 14.3,5.6 C13.9,5.6 13.5,5.4 13.1,5.4 L12.7,5.4 C12.6,5.4 12.4,5.4 12.4,5.5 C13.3,5.7 14.6,5.7 15.4,6 C15.5,6 15.6,5.8 15.8,5.8 C15.9,5.7 16.1,5.8 16.2,5.8 C16.4,5.8 16.4,5.7 16.4,5.6 C15.6,5.4 14.8,5.2 14.6,4.5 C15.7,4.9 16.9,5.1 18.1,5.5 C18.1,5.6 17.8,5.7 18.1,5.8 C18.3,5.8 18.2,5.6 18.3,5.5 C18.4,5.6 18.5,5.7 18.7,5.6 L19.4,5.6 C19.5,5.6 19.8,5.5 19.9,5.6 C20.2,5.5 20.1,5.7 20.1,5.9 C19.9,5.8 19.8,5.6 19.5,5.7 C19.7,6.5 21.3,5.9 21.4,6.8 C21.2,6.8 21.1,7.1 20.9,7.1 C20.9,6.9 21.2,7 21.1,6.7 C20.3,6.6 19.5,6.4 18.8,6.2 C18.1,6 17.3,5.7 16.6,5.7 C16.6,5.9 16.9,5.8 16.9,6 C16.3,5.9 15.8,6.4 15.4,6 C15.3,6 15.3,6.3 15.1,6.2 C13.6,6 12.1,5.7 10.6,5.5 C10.4,5.1 9.6,5.2 9.2,5.3 C8.3,5 7.1,4.7 6,4.4 C5,4.1 3.7,3.9 3.3,2.9 C4,2.4 5,3 5.6,3.2 C6.3,3.3 6.6,3.8 7.5,3.7 C7.7,3.7 7.6,3.9 7.7,3.9 C8.3,4 8.8,4 9.3,4.1 C9.9,4.2 10.4,4.8 11,4.4 C10.4,4.3 10,3.9 9.3,3.8 C9.1,3.8 8.9,3.9 8.7,3.8 C7.8,3.7 7,3 6,3.1 C5.8,2.9 5.4,3 5.2,2.8 C5.2,2.6 5.4,2.7 5.5,2.7 C5.5,2.5 5.2,2.6 5.3,2.3 C4.2,2.4 3.3,2.1 2.6,1.8 C2,1.5 1.3,1.2 1.3,0.6 C2.5,0.4 3.4,1.2 4.6,1.4 L4.6,1.3 C4.4,0.9 3.9,1.1 3.5,0.9 C2.7,0.7 1.9,-0.1 1,0.4 C0.9,1.8 2.5,1.9 3.3,2.5 C2,3.2 4.2,4 4.8,4.3 L4.9,4.3 C5.1,4.4 5.7,4.6 5.9,4.6 C6.3,4.7 6.7,4.8 7.1,5 C7.3,5 7,5.3 7.1,5.5 C7.9,6.4 9.3,6.6 10.7,6.9 C10.8,7 10.4,7.1 10.5,7.3 C10.5,7.7 11.3,8 11.7,8.2 C12.3,8.5 12.8,8.7 13.2,8.8 C13.3,8.9 12.9,9 12.9,9.3 C12.9,9.7 13.5,10.1 13.9,10.2 L13.9,10.2 C14.2,10.3 14.7,10.4 15,10.6 C16,10.9 17,11.1 18,11.5 C17.9,11.9 17.6,11.7 17.6,12 C17.6,12.3 18,12.6 18.3,12.8 C18.7,13 19.2,13.2 19.3,12.8 C18.9,12.5 18.2,12.5 17.9,12.1 C18.1,11.6 18.7,11.6 19.1,11.4 C18.7,11.1 17.6,11.2 17.7,10.5 C17.8,10.2 18.1,10.2 18.4,10.1 C18.7,10 19.1,10.1 19.4,10.1 C19.8,10.1 19.8,10.6 20.2,10.4 C20,11.1 19.2,10.4 18.7,10.6 C19.2,11 20.2,10.9 21,11 C21.2,11 20.9,11.2 20.8,11.2 C20.8,11.4 21,11.5 20.8,11.5 C20.5,11.6 20.5,11.3 20.4,11.1 C20.2,11.5 19.3,11.1 19,11.3 C19.4,11.5 19.9,11.5 20.4,11.5 L21.2,11.5 L21.2,11.7 C21.4,11.9 22,11.8 22.2,11.7 C22.3,11.9 21.8,12 21.5,12 C21.3,12 20.9,11.9 20.8,12 L20.7,12 C20.7,12.4 21.5,12.2 21.9,12.2 C21.9,12.4 21.3,12.5 21.2,12.8 C21.2,12.7 21,12.8 20.9,12.8 C20.5,12.8 20,12.9 19.7,12.8 C19.6,12.8 19.6,12.7 19.4,12.8 C19.3,12.9 19.2,13.1 19.3,13.1 C19.2,13.2 19,13.1 18.9,13.1 C18.1,13.6 19.5,14.5 20.3,14.6 C20.7,14.6 20.9,14.5 21.1,14.6 C21.2,14.7 20.8,14.8 20.5,14.9 C20.2,15 19.9,15 19.8,15.2 C20,15.6 20.8,16.3 21.4,16.4 C21.7,16.4 21.8,16.2 22,16.4 C22.1,16.5 22.1,16.6 21.8,16.6 C22.2,17.2 22.9,17.4 23.8,17.4 L24.3,17.4 L24.5,17.4 C24.5,17.7 24.2,17.8 24.1,18.1 C24.3,18.3 24.6,18.4 24.9,18.5 L25.5,18.5 C25.8,18.5 25.9,18.4 26.1,18.3 C26.2,18.6 26.3,18.8 26.6,18.8 L27,18.8 C27.5,18.8 27.8,18.5 28.1,18.5 C28.4,18.6 28.3,19 28.5,19.2 C28.2,21.2 27.2,22.6 26.2,23.9 L26,23.9 L26.1,24 L37.4,24 L37.4,24 C36.8,24 37.6,24 37,24 C36.2,22.5 35.7,20.7 35.1,19.1 C35.2,18.8 35.5,18.7 35.8,18.5 C36.4,18.9 36.6,19.6 37.5,19.6 L38,19.6 C38.2,19.5 38.3,19.3 38.4,19.1 C38.5,19 38.8,19 38.9,19.1 C39.4,19.2 40.1,19.2 40.4,19 C40.4,18.7 40.5,18.6 40.5,18.4 L40.5,18.2 L41.1,18.2 C41.5,18.1 42,18 42.1,17.7 C42.2,17.3 41.7,17.2 41.6,16.9 L42,16.9 L42.7,16.9 C43,16.9 43.1,16.8 43.3,16.9 C43.5,16.7 43.5,16.3 43.5,15.9 C44.4,15.9 45,15.5 45.5,15 C45.4,14.6 45,14.6 44.8,14.3 C45.4,14.2 46.1,14.1 46.4,13.7 C46.3,13.5 46.3,13.4 46.5,13.4 C46.6,13.1 46.2,13.2 46.3,12.9 C46.9,12.3 48.2,12.3 48,11.1 C48.3,11.1 48.6,10.9 48.9,11 C49.2,11 50.1,10.9 50.4,10.3 C50.4,10.3 50.4,10.2 50.5,10.2 C50.5,10.1 50.5,10 50.6,9.9 C51,9.7 51.6,9.6 52.1,9.4 C52.7,9.2 53.5,8.9 53.4,8 C54.8,7.5 57,7.6 57.3,6.1 C57.4,6.1 57.5,6 57.6,6.1 C57.7,6 57.9,6.1 58.1,6.1 C58.5,6.1 58.8,6 59.1,5.9 L59.1,5.9 C59.2,5.8 59.3,5.6 59.7,5.6 L60.2,5.6 L60.2,5.6 C61.1,5.4 61.6,4.9 61.8,4.1 C61.8,3.9 61.6,4 61.6,3.9 C62.9,2.7 64.8,2.9 65,1.4 Z M45.7,4.3 C45.8,4.3 45.9,4.5 46,4.6 C46.4,4.5 46.4,4.1 46.9,4.1 C47.1,4.1 46.9,4.2 46.9,4.3 C47.3,4.1 47.5,3.9 48,3.9 C48.1,3.8 48.5,3.8 48.5,3.9 C48.6,3.9 48.7,3.9 48.8,4 C49.4,3.6 50.3,3.6 51.3,3.7 C51.3,3.9 50.8,4.2 50.6,4.4 C49.5,4.5 48.3,4.7 47.4,5 C46.9,4.8 46.3,5 46,5.3 C45.2,5.2 44.8,5.5 44.1,5.5 C44,5.6 43.7,5.6 43.6,5.5 L43.6,5.5 C43.5,5.3 44.3,5 44.4,4.6 C44.9,4.8 45.1,4.3 45.7,4.3 Z M47.7,5.8 C47.5,5.9 47.3,6.1 47.1,6.1 C47.1,6.2 46.7,6.2 46.7,6.1 C46.5,6.1 46.4,6 46.2,6.1 C46.1,6.2 46.1,6.5 46.2,6.5 C45.3,6.7 44.1,6.5 43.3,6.8 C43.3,6.7 43.4,6.6 43.3,6.5 C43.9,6.7 44.2,6.3 44.8,6.3 L44.7,6.3 C44.6,6.2 44.2,6.3 44,6.3 C43.8,6.3 43.7,6.2 43.7,6.1 C43.8,6 43.9,6.1 44,6.1 C44.2,6.1 44,6.2 44,6.3 C44.3,6.2 44.9,5.7 45.2,6.1 C45.2,6.2 44.8,6.1 44.6,6.1 C44.6,6.2 44.9,6.2 44.8,6.4 C45.2,6.2 45.8,6.3 46,6 C45.8,5.7 45.6,6 45.4,6.1 C45.3,6 45.4,6 45.4,5.9 C46.7,5.6 47.9,5.1 49.5,5 C49.7,4.9 50.4,4.9 50.3,5 C49.9,5.6 48.9,6.1 47.7,5.8 Z M49.7,5.9 C49.7,5.7 49.9,5.7 50,5.6 C50.2,5.7 49.9,6 49.7,5.9 Z M43.3,8.2 C43.7,7.8 44.3,8 44.8,8 C45.5,8 46.3,7.7 47,7.7 C47.2,7.6 47.8,7.6 48,7.7 C47.7,8.4 47.1,8.7 46.2,8.7 L45.8,8.7 C45.5,8.7 45.3,8.6 45,8.6 C44.9,8.6 45,8.9 44.9,8.9 C44.2,8.8 43.4,8.9 42.8,8.7 C42.8,8.4 43.3,8.6 43.6,8.5 C43.6,8.3 43.2,8.4 43.1,8.1 C43,8.1 43,8.5 42.8,8.3 C42.8,8.1 43.1,8.2 43,8 C42.6,8 41.8,8.3 41.3,8 C41.4,7.7 41.6,7.6 42,7.5 C42.1,7.4 42.5,7.4 42.6,7.5 L43,7.5 C43.2,6.9 44.4,7.5 44.7,7 C44.6,6.8 44.4,7 44.4,7.1 C44,7 43.3,7.2 43.1,6.9 C43.6,6.9 44.2,7.1 44.5,6.7 C44.6,6.6 45,6.6 45.2,6.7 L45.4,6.7 L45.9,6.7 C46.4,6.4 47.4,6.5 48,6.3 C48.2,6.4 48.2,6.6 48.5,6.5 C48.4,6.8 48.3,7 48.1,7.1 C47,7 46,8.1 44.9,7.4 C44.7,7.4 44.7,7.7 44.5,7.7 C44.4,7.7 44.4,7.6 44.3,7.6 C44.2,7.5 43.8,7.5 43.8,7.6 C43.6,7.6 43.3,7.7 43.1,7.8 C43,8.1 43.4,7.9 43.3,8.2 Z M47.4,8.8 L47.7,8.8 C47.6,8.9 47.5,9.1 47.2,9.1 C47.1,9 47.4,9.1 47.4,8.8 Z M47.7,8.9 C47.8,8.9 47.9,8.9 48,9 C48,9.2 47.8,9.1 47.7,9.2 C47.6,9.1 47.7,9 47.7,8.9 Z M46.7,10.5 C46.4,10.7 46.4,10.2 46.2,10.4 C46.3,10.4 46.2,10.2 46.3,10.2 C46.4,10.3 46.5,10.3 46.5,10.4 C46.6,10.4 46.6,10.3 46.6,10.2 C47,10.3 46.6,10.5 46.7,10.5 Z M41.9,13.7 C41.7,13.7 41.6,13.6 41.6,13.4 C41.5,13.6 41.3,13.4 41.2,13.3 C41.3,13.2 42,13.4 42.2,13.2 C42.4,13.5 41.8,13.4 41.9,13.7 Z M36.8,15.2 C36.8,15.1 37,15.1 37.1,15.1 C37.1,15 37.5,15 37.5,15.1 C37.8,15.1 38,15.2 38,15.5 C37.7,16.2 36.6,15.7 36,15.7 C36,15.6 36.3,15.6 36.2,15.4 C36.3,15.6 37,15.6 37.2,15.4 C37.2,15.1 36.8,15.3 36.8,15.2 Z M37.4,14.6 C37.3,14.5 37.2,14.4 37.1,14.3 C37.1,14.1 37.3,14.1 37.5,14.1 C37.2,14.1 37.3,14.4 37.4,14.6 Z M38.2,13.5 C37.9,13.5 37.8,13.4 37.8,13.2 L38.2,13.2 C38.2,13.4 38.3,13.4 38.2,13.5 Z M38.2,14.1 C38,14 37.8,14 37.5,14 C37.6,13.7 38.2,13.7 38.2,14.1 Z M37.6,16.8 C37.7,16.8 37.7,16.9 37.8,16.9 C37.8,17.2 37.6,17.1 37.4,17.2 C37.4,17 37.7,17 37.6,16.8 Z M38.2,17.6 C38.2,17.7 38,17.6 38,17.7 C38,17.5 37.9,17.4 37.8,17.2 C38,17.2 38.2,17.4 38.2,17.6 Z M38.1,16.6 C38.4,16.6 38.6,16.9 38.7,17.2 C38.4,17.1 38.3,16.8 38.1,16.6 Z M38.1,16 C38,15.8 38.3,15.7 38.4,15.6 C38.5,15.8 38.2,15.9 38.1,16 Z M37.6,14.8 C37.6,14.6 37.6,14.5 37.7,14.3 C38.2,14.3 38.4,14.6 38.9,14.5 C38.9,14.3 38.5,14.1 38.2,14 C38.7,13.5 39.4,14.2 39.5,14.7 L39.2,14.7 L38.7,14.7 C38.5,14.7 38.4,14.7 38.3,14.9 C38.2,14.9 38,14.8 37.6,14.8 Z M39.5,13.9 C39.2,13.9 39,13.8 38.7,13.8 C38.7,13.7 38.8,13.6 38.9,13.5 C39.1,13.5 39.7,13.8 39.7,13.4 C39.9,13.4 39.9,13.6 40.2,13.6 C40.3,13.5 40.1,13.4 40.2,13.4 C40,13.1 39.5,13.5 39.2,13.3 C39.5,12.9 40.3,13.2 40.5,13.5 C40.4,13.8 40.2,14 39.9,14 C39.9,14 39.6,14 39.5,13.9 Z M38.7,12.6 C38.7,12.5 38.9,12.4 39,12.4 C39,12.5 39.2,12.4 39.1,12.6 C39,12.7 38.9,12.6 38.7,12.6 Z M40.8,13.7 C40.8,14 40.6,14.1 40.3,14.2 C40.5,13.9 40.7,13.8 40.8,13.7 Z M40.2,12.3 C40.1,12.3 40.1,12.4 40.1,12.4 C40.1,12.6 40.2,12.6 40.2,12.8 C39.8,12.8 39.5,12.5 39.2,12.7 C39.3,12.6 39.3,12.4 39.3,12.3 C39.5,12.3 39.5,12.2 39.8,12.2 C39.8,12.1 40,12.2 40.1,12.2 C40.2,12.2 40,12.1 40,12 C39.9,11.9 39.8,11.7 39.5,11.7 C39.4,11.9 39.8,11.8 39.7,12 C39,12 39.4,11.1 39.9,11.2 C39.9,11.4 39.7,11.3 39.7,11.5 C39.8,11.6 39.9,11.6 40,11.7 C40.6,11.4 41,11.8 41.5,12 C41.4,12.3 41.1,12.4 40.9,12.5 C40.7,12.4 40.4,12.4 40.2,12.3 Z M40.7,7 C40.8,7 40.8,7.2 40.9,7.2 C41.2,7.2 41.2,7 41.4,6.8 C41.5,6.8 41.5,6.9 41.5,7 C41.1,7 41.1,7.4 40.8,7.5 C40.8,7.7 41,7.7 41.1,7.8 C41.3,7.8 41.3,7.6 41.3,7.6 C41.5,7.6 41.5,7.7 41.5,7.8 C41.3,7.8 41.1,7.9 41.1,8.1 C40.7,8 40.6,7.7 40.4,7.4 C40.4,7.2 40.5,7.5 40.6,7.5 C41,7.2 40.6,7.1 40.7,7 Z M42.7,5.9 L42.7,5.9 C42.8,5.8 43,5.9 43.2,5.9 L43.3,5.9 C43.5,6.9 42.1,6.9 41.7,7.4 L41.4,7.4 C41.6,7 42,6.7 42.4,6.5 C42.4,6.4 42.3,6.3 42.2,6.3 C42,6.4 41.8,6.6 41.7,6.8 C41.5,6.7 41.7,6.7 41.7,6.5 C41.6,6.6 41.5,6.6 41.3,6.6 C41.3,6.4 41.7,6.1 41.9,6.4 C42.1,6.4 42,6.1 42.1,6.1 C42.2,6.2 42.7,6.3 42.7,5.9 Z M41.6,8.4 C41.7,8.8 41.3,8.8 41.1,8.9 C41,8.9 40.8,9.1 40.8,9.1 C40.7,9.1 40.6,8.9 40.4,8.9 C40.1,8.9 40.1,9 39.9,9 L39.9,8.6 C40.6,9 40.9,8.1 41.6,8.4 Z M42.6,9.4 C42.4,9.5 42.1,9.6 41.9,9.7 C41.8,9.9 41.4,9.7 41.3,9.8 C40.9,9.8 40.5,10 40.1,9.9 C40.2,9.7 40.3,9.7 40.6,9.6 C40.7,9.6 40.7,9.7 40.8,9.8 C41,9.4 41.5,9.2 41.9,9 C42,9.1 42.1,9.1 42.3,9.2 C42.4,9.2 42.5,9.1 42.5,9 L42.7,9 C42.7,9.1 42.7,9.4 42.6,9.4 Z M42.9,10.6 C42.9,10.7 42.9,10.8 42.8,10.9 C42.6,10.9 42.7,10.7 42.5,10.7 C42.6,10.6 42.8,10.6 42.9,10.6 Z M40.3,10.8 C40.5,10.7 40.6,10.8 40.8,10.7 C40.9,10.5 41,10.2 41.1,10 C41.5,10.1 41.8,9.7 41.8,10.2 C41.9,10.1 42.1,10.1 42.2,10.2 C42,11 41.2,11.5 40.1,11.3 C40.1,11.2 40.3,11.1 40.3,10.8 Z M40.2,10.4 C40.3,10.3 40.5,10.2 40.6,10.2 L40.6,10.4 C40.5,10.4 40.3,10.5 40.2,10.4 Z M40.2,9.5 C40,9.3 40.6,9 40.6,9.3 C40.5,9.4 40.2,9.3 40.2,9.5 Z M40,10.8 C40,11 39.6,10.9 39.5,10.9 L39.5,10.8 L40,10.8 Z M42.1,11.6 C42.2,11 43.4,11.5 43.6,11 C43.6,10.9 43.5,10.9 43.5,10.8 C43.3,10.8 43.4,11.1 43.1,11 C43,10.9 43.2,10.8 43.1,10.8 C43.2,10.7 43.3,10.7 43.5,10.7 C43.6,10.6 43.9,10.6 44,10.7 C44.3,10.7 44.4,10.8 44.7,10.9 C44.6,11.7 43.5,11.3 43,11.7 C42.6,11.6 42.4,11.6 42.1,11.6 Z M44.5,10.3 C44.1,10.4 43.3,10.3 42.7,10.3 C42.9,10 43.2,9.8 43.5,9.6 C43.8,9.9 44.7,10.1 44.9,9.5 C44.5,9.4 44,9.5 43.6,9.4 C43.9,9 44.5,9.3 44.9,9.2 C45.1,9.2 45.2,9 45.3,9.1 C45.6,9.3 46.1,9.1 46.4,9.3 C46.4,10.3 45.1,10 44.2,10.1 C44.1,10.3 44.4,10.1 44.5,10.3 Z M43,9.4 C43,9.2 43.2,9.2 43.3,9 C43.6,9.2 43.3,9.4 43,9.4 Z M46.5,10 C46.5,9.7 46.8,9.5 47,9.7 C47,9.8 46.7,9.9 46.5,10 Z M38,8.3 C38,8.2 37.9,8.2 37.9,8.1 C38,7.8 38,7.6 38,7.2 C38.1,5.1 40.2,5.2 42.2,4.8 C43,4.6 43.7,4.3 44.3,4.1 L44.4,4.1 C44.1,5 43.4,5.4 42.3,5.4 C42.2,5.6 42.4,5.6 42.5,5.8 C42.1,5.7 42.2,5.8 41.9,5.9 C41.3,6.2 40.1,6.1 39.9,6.8 C40.3,7.2 40.5,6.4 41,6.5 C40.7,7.1 40.1,7.4 39.7,7.8 C39.7,8 39.8,8.1 40.1,8.1 C40,8.4 39.7,8.5 39.6,8.7 C39.5,8.9 39.7,8.9 39.7,9 C39.5,9.1 39.3,9.2 39.3,9.4 C39.4,9.7 39.8,9.3 39.8,9.4 C39.8,9.7 39.3,9.7 39.3,10.1 C39.5,10.1 39.5,10 39.5,9.9 C40.2,10.7 37.9,11.1 39.2,11.8 C38.7,13 37.5,13.6 36.1,13.9 C36.3,13.6 36.5,13.1 36.8,12.9 C36.8,12.7 36.4,12.8 36.3,12.7 C37.9,12.3 37.9,10.3 38,8.3 Z M35.9,13 L36.1,13 L36.1,13.3 C36,13.3 35.8,13.1 35.9,13.3 C35.7,13.2 35.9,13.1 35.9,13 Z M20.4,5.5 C20.4,5.5 20.4,5.3 20.5,5.4 C20.6,5.3 21,5.3 21,5.4 C21.1,5.7 20.7,5.5 20.4,5.5 Z M21,5.1 L20.7,5.1 C20.7,4.9 20.7,4.8 20.9,4.8 C20.8,5.1 21,5 21,5.1 Z M21.4,5.7 C21.9,5.1 22.8,5.7 23.3,5.9 C23.2,6.1 23,5.9 22.8,5.9 C22.8,5.8 22.9,5.8 22.8,5.7 C22.4,5.7 21.8,5.7 22,6.2 C22.2,6.2 22.1,6 22.3,6 C22.4,6.3 23,6.2 23.1,6.5 C22.3,7 21.7,6.1 21.4,5.7 Z M23.6,6.2 C23.6,6.3 23.6,6.5 23.7,6.4 C23.7,6.5 23.5,6.4 23.6,6.5 C23.5,6.5 23.6,6.2 23.3,6.2 C23.3,6.1 23.4,6 23.4,5.9 C23.5,6 23.6,5.8 23.8,5.8 C23.8,6 24.1,6.1 24,6.4 C23.8,6.4 23.8,6.3 23.8,6.1 C23.7,6.1 23.7,6.2 23.6,6.2 Z M24.5,7.1 C24.6,7.4 24.3,7.3 24.3,7.6 C24.2,7.6 24.2,7.4 24.1,7.4 C24,7.4 24.1,7.6 24,7.5 C23.9,7.4 23.9,7.3 24,7.2 C23.9,7.2 23.9,7.3 23.7,7.2 C23.7,7.1 23.7,7.1 23.8,7 C23.8,6.9 23.7,6.9 23.7,6.9 C23.4,6.9 23.4,7 23.1,7 C23.3,6.8 23.1,6.9 23,6.7 C23.6,6.4 23.8,7.3 24.5,7.1 Z M21.5,9.3 C21.6,9.1 21.8,9.1 22,9 C22.1,8.9 22.4,8.9 22.5,9 C23,9 23.3,9.2 23.6,9.3 C23.3,9.6 22.8,9.2 22.4,9.2 C22.5,9.8 23.6,9.5 24,9.8 L24.4,9.8 C24.5,9.9 24.3,10.1 24.5,10.2 C24.8,10.2 24.4,9.8 24.7,9.7 C24.9,9.7 24.8,10.2 24.7,10.3 C24.4,10.3 24.2,10.2 24.2,10 C24,10.1 23.7,10.2 23.3,10.2 C23.2,10.1 23.4,10 23.4,9.8 C22.5,10.1 22.1,9.5 21.5,9.3 Z M17,7.1 C18.2,7.1 19,7.5 20.2,7.6 L20.7,7.6 C21,7.6 21.2,7.5 21.4,7.4 C21.3,7.8 21,7.9 20.6,8 C20.5,8.1 20.1,8.1 19.9,8 C19.7,8 19.6,7.9 19.4,7.9 C19.5,8.7 21.7,7.7 21.6,8.7 C21.3,8.7 20.9,8.6 20.8,8.9 C19.6,8.3 17.7,8.4 16.9,7.5 C16.9,7.2 17,7.2 17,7.1 Z M23.1,8 C23.2,8.1 23.8,7.9 23.8,8.2 C23.3,8.2 22.8,8.1 22.5,7.9 C22.7,7.9 23,8 23,7.8 C23,7.7 22.8,7.9 22.9,7.7 C22.5,7.9 21.9,7.9 21.8,7.5 C21.9,7.3 22.5,7.6 22.6,7.4 C22.8,7.5 23,7.9 23.3,7.6 C23.3,7.7 23.1,7.7 23.1,8 Z M23.4,7.8 L23.4,7.6 C23.5,7.6 23.8,7.5 23.9,7.6 C23.8,7.8 23.6,7.8 23.4,7.8 Z M24.2,8.1 C24.1,8.3 24,8.4 23.7,8.4 C23.8,8.2 23.9,8 24.2,8.1 Z M22.6,8.7 C22.6,8.8 22.2,8.8 22.2,8.7 C22.3,8.6 22.4,8.7 22.6,8.7 Z M24.1,9.6 C24.1,9.7 23.5,9.7 23.6,9.6 C23.6,9.5 23.7,9.5 23.8,9.5 C23.9,9.4 24.4,9.4 24.3,9.5 C24.3,9.6 24.1,9.5 24.1,9.6 Z M24.6,9.3 C24.4,9.2 24.2,9.1 23.9,9.1 L23.9,8.9 C23.7,8.8 23.7,9 23.6,9.1 C23.4,8.9 22.9,8.9 22.8,8.5 C23.4,8.5 23.6,8.8 24.1,8.7 C24.1,8.9 24,8.9 24,9 C24,9.1 24.1,9.1 24.1,9.1 C24.2,9.1 24.3,8.9 24.5,8.9 C24.7,9 24.7,9.2 24.6,9.3 Z M22,8 C21.8,8.4 21.5,7.8 21.2,7.8 C21.5,7.6 21.7,8 22,8 Z M20.2,6.4 C19.9,6.7 19.2,6.6 18.8,6.4 C18.8,6.5 18.9,6.5 18.8,6.7 C18.9,6.8 19.1,6.7 19.2,6.7 L19.2,6.7 C19.3,6.7 19.1,7 19.3,6.9 C19.4,6.9 19.5,6.8 19.5,6.6 C19.8,6.6 19.9,6.8 20.2,6.8 C20.3,6.6 20,6.8 20,6.7 C19.9,6.5 20.7,6.6 20.9,6.6 C20.9,6.8 20.6,6.7 20.4,6.7 C20.5,7 21.1,6.8 21.4,6.9 L21.4,7.1 C21.1,7 20.5,7 20.4,7.3 C20.2,7.1 19.8,7 19.4,7 L19.2,7 C18.6,7 17.9,7 17.6,6.7 C17,6.8 16.4,6.6 16.3,6.2 C17.6,5.7 19,6.3 20.2,6.4 Z M11.3,7.3 C11.7,6.6 13,7 13.5,7.3 C13.6,6.8 12.9,7 12.8,6.7 C11.7,6.6 10.6,6.5 9.6,6.2 C8.9,6 8,5.8 7.9,5.1 C8.6,4.9 9,5.3 9.7,5.3 C9.9,5.4 10.2,5.3 10.4,5.3 C11.1,5.2 11.3,5.7 12,5.7 C12.3,5.9 13.2,5.5 13.2,5.9 L13.2,5.9 C14.3,5.9 15.3,6.1 16.2,6.4 C16.4,6.4 16.2,6.5 16.2,6.6 C16.3,6.9 16.7,6.9 16.7,7.4 C16.2,7.4 15.7,7.3 15.1,7.3 C14.6,7.3 14.2,7.2 13.8,7.2 C13.8,7.7 14.6,7.5 15,7.4 C16.1,7.5 17.2,7.5 17.6,8.2 C16.4,8.2 15.3,7.8 13.9,7.9 C13.9,8.3 14.6,7.9 14.8,8.1 C14.8,8.3 14.6,8.2 14.4,8.3 C14.3,8.4 13.9,8.4 13.8,8.3 C12.8,8.2 11.9,7.9 11.3,7.3 Z M15,8.3 C15.2,8.4 15.4,8.5 15.5,8.7 C15.2,8.6 14.7,8.8 14.6,8.6 C14.7,8.5 15,8.6 15,8.3 Z M17.8,10.4 L17.8,10.4 C17.7,10.7 17.5,10.9 17.2,10.8 C17.3,10.7 17.5,10.7 17.6,10.5 L17.6,10.3 C17.7,10.3 17.9,10.2 17.8,10.4 Z M16,9.7 C16,10.1 17,10.3 17.4,9.9 C17.6,10.5 16.6,10.8 16.3,10.4 L16.1,10.4 C16,10.5 15.7,10.5 15.6,10.4 L15.3,10.4 C15.3,10.1 15.6,10.2 15.8,10.2 C15.9,9.9 15.7,9.8 15.6,9.6 C15.4,9.6 15.3,9.7 15,9.7 C15,10 15.3,10 15.6,9.9 C15.2,10.3 14.2,10.1 13.9,9.7 C14.2,9.6 14.5,9.7 14.6,9.9 C14.8,9.8 14.8,9.3 14.5,9.4 L14,9.4 C13.8,9.4 13.8,9.4 13.7,9.3 C13.8,9.1 13.9,9.1 14.2,9.1 C14.3,9 14.7,9 14.8,9.1 C15.3,9.1 15.8,9.1 15.9,8.8 C15.9,8.7 15.7,8.7 15.5,8.7 C15.7,8.4 16.3,8.4 16.7,8.5 C17.1,8.6 17.5,9.1 17.8,9.1 C17.6,9.4 17.4,9 17.3,8.9 C17.2,8.9 17.1,9 16.9,9 C16.8,9.1 16.5,9.1 16.4,9 C16.1,9 15.7,8.9 15.6,9.1 C16.6,9.4 17.9,9.4 18.9,9.6 C18.2,10.2 16.9,9.6 16,9.7 Z M19,9.6 C18.9,8.9 17.7,9.2 17.5,8.6 C18.8,8.1 19.9,8.9 21.1,9 C21.1,9.2 21,9.1 21,9.2 C20.6,9.1 20.1,9.2 19.8,9 C19.7,9 19.7,9.1 19.7,9.2 C20.2,9.2 20.8,9.7 21.2,9.4 C21.4,9.7 21,9.7 20.8,9.7 L20.8,9.5 C20.4,9.7 19.6,9.8 19,9.6 Z M21.9,11.5 C21.7,11.5 21.5,11.4 21.6,11.2 C21.8,11.2 21.8,11.4 22,11.3 C22.1,11.4 21.9,11.4 21.9,11.5 Z M21.7,10.4 C21.6,10.4 21.5,10.5 21.5,10.6 C21.2,10.5 21.1,10.8 20.9,10.8 C20.9,10.7 20.8,10.7 20.8,10.6 C21,10.6 21,10.8 21.2,10.7 C21.3,10.6 21.2,10.4 21.2,10.3 C21.3,10.4 21.4,10.4 21.4,10.5 C21.7,10.4 21.7,10.1 22.1,10.1 C22.1,10 22.5,10 22.5,10.1 C22.5,10.2 22.5,10.3 22.6,10.4 C23.3,10.4 23.7,10.6 24.3,10.6 C24.3,10.8 24.4,10.8 24.3,10.9 C24.2,10.9 24,10.8 23.9,10.9 C23.8,11.1 24.2,10.9 24.2,11.1 C24.3,11.1 24.3,11.3 24.2,11.3 C24.1,11.4 23.8,11.3 23.8,11.5 C23.6,11.4 23.3,11.5 23.2,11.3 C22.5,11.2 22.2,10.7 21.7,10.4 Z M22.3,11.4 C22.4,11.3 22.6,11.4 22.8,11.4 C22.8,11.7 22.2,11.7 22.3,11.4 Z M24.4,11.8 C24.5,11.8 24.4,11.6 24.5,11.6 L24.6,11.6 C24.7,11.6 24.6,11.9 24.8,11.8 C25,11.8 25,11.6 25.3,11.6 C25.2,11.8 25,11.9 24.9,12.1 C24.6,11.8 24.4,12.4 23.9,12.2 C23.9,12.3 23.9,12.4 24,12.4 C24.3,12.4 24.5,12.3 24.7,12.2 C24.6,12.3 24.7,12.4 24.7,12.5 C24.2,13 22.9,13 22.8,12.1 C23.2,12 23.8,11.3 24.4,11.8 Z M25.4,12.3 C25.6,12.3 25.5,12.6 25.7,12.5 C25.9,12.6 25.1,12.6 25.3,12.5 C25.4,12.4 25.4,12.4 25.4,12.3 Z M24.7,13.6 C24.7,13.7 24.9,13.6 24.9,13.8 C25.3,13.7 25.5,13.5 25.9,13.5 C25.9,13.4 26.5,13.4 26.3,13.5 C25.9,13.6 25.6,13.8 25.5,14.1 C24.8,14.1 24,14.6 23.7,13.9 C24,13.2 24.9,12.9 25.9,13 C25.6,13.5 24.6,13.2 24.3,13.7 C24.4,13.9 24.6,13.6 24.7,13.6 Z M25.4,14.9 C26.1,14.8 26.9,14.5 27.3,14.3 C27.3,14.4 27.3,14.4 27.4,14.4 C27.4,14.5 27.2,14.4 27.2,14.4 L27.2,14.6 C27.5,14.8 27.6,14.3 27.8,14.5 C27.7,14.7 27.4,14.7 27.3,14.9 C27.1,14.9 27.1,14.6 26.9,14.7 C26.8,14.8 27.1,14.8 27.2,14.9 C27,15.2 26.6,15.2 26.3,15.4 C26.3,15.3 26.2,15.3 26.2,15.2 C25.8,15.1 25.7,15.3 25.5,15.4 C25.2,15.3 25.1,15.1 24.8,15.1 C25.2,14.5 26,14.3 26.8,14.2 C26.6,14.6 26,14.6 25.4,14.7 C25.3,14.7 25.5,14.8 25.4,14.9 Z M28.7,15 C28.5,15.1 28.4,14.8 28.1,14.8 C28.1,14.6 28.2,14.5 28.4,14.5 C28.2,14.7 28.6,14.9 28.7,15 Z M28.3,15.8 C28.4,15.8 28.4,15.9 28.3,15.8 C28.3,16.1 28.2,16.2 27.9,16.2 C28,16 28.2,15.9 28.3,15.8 Z M27.1,16.2 C27.1,16.3 26.7,16.3 26.7,16.2 C26.5,16.2 26.3,16 26.2,15.9 C26.2,15.6 26.7,15.6 26.7,15.2 C27.1,15.4 27.2,15 27.6,15 C27.5,15.3 27.1,15.4 26.9,15.7 C27.5,15.8 27.9,15.4 28.1,15 C28.3,15.8 27.6,16.1 27.1,16.2 Z M27,17.3 C26.8,17.3 26.7,17.2 26.6,17.2 C26.9,17 27.1,16.8 27.4,16.7 C27.4,17.1 26.9,16.9 27,17.3 Z M26,16.6 C26,16.4 25.8,16.5 25.8,16.3 C26,16.3 26.1,16.5 26.2,16.6 C26.1,16.7 25.9,16.8 25.8,16.8 C25.6,16.8 25.6,16.6 25.3,16.6 C25.3,16.4 25.5,16.4 25.7,16.4 C25.8,16.6 25.9,16.7 26,16.6 Z M24.6,16.2 C24.6,16.3 24,16.3 24.2,16.2 C24.4,16 24.8,16 24.9,15.7 C24.9,15.7 25,15.8 25.1,15.7 C25.2,16 24.9,15.9 24.9,16.1 C24.7,16 24.6,16 24.6,16.2 Z M25.8,13.9 L25.8,13.7 C26,13.7 26.1,13.7 26.1,13.9 C26,14 25.9,14 25.8,13.9 Z M23.9,14.4 C23.9,14.6 23.8,14.7 23.6,14.6 L23.6,14.4 L23.9,14.4 Z M24.6,12.8 L24.6,12.6 C24.9,12.6 25.2,12.5 25.2,12.8 C25,12.7 24.8,12.9 24.6,12.8 Z M25.2,12.4 C25,12.4 24.9,12.3 24.7,12.3 C24.7,12.1 25.1,12.3 25,12.1 C25.1,12.1 25.1,12.2 25.3,12.1 C25.3,12.3 25.2,12.2 25.2,12.4 Z M23.3,14.6 C23.2,14.5 23,14.5 22.8,14.4 C22.9,14.3 23,14.1 23.3,14 C23.3,14.2 23.4,14.3 23.5,14.3 C23.5,14.4 23.3,14.4 23.3,14.6 Z M23,14.6 L23,14.7 C22.9,14.8 22.8,14.8 22.6,14.8 C22.6,14.7 22.5,14.7 22.6,14.6 L23,14.6 Z M22.6,12.7 C22.8,12.7 22.9,12.8 22.9,12.9 C22.7,12.9 22.6,13 22.5,13.1 C22.3,13 22.7,13 22.6,12.7 Z M22.4,13 C22.4,13.1 22.1,12.9 22.2,12.8 C22.4,12.7 22.3,13 22.4,13 Z M22.4,13.3 C22.4,13.5 22,13.4 22,13.3 C22.2,13.3 22.4,13.2 22.4,13.3 Z M20.9,14.6 C20.4,14.4 19.9,14.2 19.6,13.9 C19.9,13 21.9,13.2 22.3,13.9 C22.1,14 21.8,13.9 21.6,13.9 C21.5,14 21.7,14.1 21.6,14.1 C22,14.3 22.3,13.9 22.8,14 C22.9,13.9 22.8,13.8 22.8,13.7 C22.8,13.6 22.6,13.6 22.4,13.5 C22.7,13.3 23.1,13.5 23.4,13.6 C23.4,13.9 23,13.7 22.9,13.9 C22.9,14 22.8,14.1 22.9,14.2 C22.8,14.2 22.7,14.3 22.6,14.2 C22.5,14.2 22.7,14.3 22.7,14.4 L22.7,14.6 C22.4,14.6 22.4,14.9 22,14.8 C22,14.5 22.2,14.6 22.2,14.3 C22.2,14.2 22.1,14.2 22,14.1 C21.9,14.2 21.9,14.3 21.8,14.3 C21.5,14.4 21.1,14.4 20.9,14.6 Z M24.4,17.3 C24.3,17.3 24.3,17.2 24.3,17.1 C24.1,17.1 24.1,17.2 23.9,17.2 C23.8,17.3 23.4,17.3 23.4,17.2 C23.1,17.1 22.9,17.1 22.8,16.9 C22.9,16.6 23.5,16.7 23.8,16.5 C23.8,16.3 23.7,16.2 23.7,16 C23.5,16 23.4,16.2 23.1,16.2 L23.1,16 C22.4,16.4 21.4,16.1 20.9,15.6 C21.3,15 22.4,15.1 23.3,15 C23.2,15.3 23,15.6 22.6,15.6 C22.6,15.7 22.3,15.6 22.3,15.7 C22.4,15.7 22.3,15.7 22.3,15.8 L21.7,15.8 L21.8,15.8 L22.3,15.8 C22.9,15.8 23.3,15.6 23.4,15.1 C23.9,15.2 24.1,14.8 24.4,14.7 C24.6,14.7 24.6,14.8 24.6,15 C24,15.1 23.6,15.2 23.2,15.5 C23.2,15.8 23.5,15.7 23.6,15.8 C23.8,15.6 24.1,15.4 24.4,15.3 C24.5,15.7 24,15.9 23.7,16 L23.7,16.4 C24.1,16.4 24.3,16.2 24.7,16.2 C24.7,16.5 24.4,16.6 24.3,16.8 C24.6,17.1 24.8,16.5 25.1,16.5 C25.3,16.5 25.3,16.7 25.6,16.7 C25.5,16.9 25.3,17 25.1,17.2 C25.1,17 25.3,17 25.3,16.8 C24.9,16.6 24.8,17.3 24.4,17.3 Z M25.1,18.4 C25,18 25.3,17.8 25.6,17.6 C25.7,17.6 25.7,17.7 25.7,17.8 C25.6,17.9 25.5,17.8 25.5,17.8 C25.5,17.9 25.6,17.9 25.5,18 L25.8,18 C25.9,18 25.7,17.9 25.8,17.8 L26,17.8 C25.9,18.3 25.5,18.3 25.1,18.4 Z M26.1,18.4 C26.1,18.2 26.2,18.2 26.4,18.2 C26.3,18 26.2,17.6 25.9,17.7 C25.9,17.4 26.3,17.4 26.4,17.1 C26.6,17.2 26.5,17.5 26.8,17.5 C26.8,17.7 26.6,17.8 26.4,17.7 L26.4,17.4 C26.3,17.4 26.3,17.5 26.2,17.5 C26.2,17.7 26.4,17.7 26.4,18 C26.7,18 26.7,17.8 26.9,17.8 C26.9,17.7 27,17.8 27.1,17.8 C27.1,17.7 27,17.5 27.1,17.5 C27.6,17.4 27.7,16.9 28.3,16.8 C28.1,17.1 27.9,17.2 27.6,17.3 C27.6,17.4 27.6,17.5 27.7,17.5 C27.2,17.8 26.9,18.4 26.1,18.4 Z M27.3,18.6 C27.4,18.4 27.6,18.4 27.8,18.3 C27.8,18.5 27.6,18.7 27.3,18.6 Z M28.1,18.4 C28,18.3 27.8,18.2 27.9,18 C28.4,18 28.3,17.5 28.7,17.4 C28.7,17.6 28.6,17.8 28.7,17.9 C28.5,18.1 28.4,18.3 28.1,18.4 Z M29,16.7 C29,16.6 29.2,16.6 29.3,16.6 C29.3,16.5 29.2,16.4 29.3,16.4 C29.5,16.4 29.4,16.7 29.4,16.8 C29.2,16.8 29.1,16.8 29,16.7 Z M29.1,17.4 C29.1,17.2 29.4,17.2 29.5,17.1 C29.7,17.1 29.6,17.3 29.7,17.3 C29.5,17.7 29.3,18 29.1,18.3 C28.9,17.9 29.3,17.7 29.6,17.5 C29.6,17 29.3,17.4 29.1,17.4 Z M26.9,24 C27.3,23.8 27.5,23.4 27.9,23.3 C27.9,23.1 27.8,23.2 27.8,23 C27.9,22.9 28.1,22.9 28.2,22.8 C28.2,23.3 27.8,23.7 27.6,24.1 C27.5,24.1 26.8,24.1 26.9,24 Z M29,24 C29,24.1 28.9,24 28.8,24 L28.8,23.7 C28.4,23.6 28.5,23.9 28.1,23.9 C28.3,23.5 28.6,23.3 28.8,22.9 C28.9,22.9 29,23 29,23.1 C29,23.2 28.9,23.3 28.8,23.3 C28.8,23.4 28.9,23.5 29,23.5 L29.1,23.5 C29,23.7 29.1,23.9 29,24 Z M28.9,22.9 C29,22.7 29,22.5 29.2,22.5 C29.3,22.5 29.3,22.7 29.3,22.9 L28.9,22.9 Z M29.3,22.3 C29.3,22.2 29.3,22.1 29.2,22.1 C29.3,21.7 29.9,21.7 29.7,21.1 C29.5,21.1 29.7,21.4 29.4,21.3 C29.3,20.9 29.8,20.9 29.6,20.5 C29,21 29.1,22.1 28.5,22.5 C28.5,22.3 28.3,22.3 28.3,22.2 C28.4,22 28.5,21.8 28.8,21.7 C28.6,20.8 29.7,20.8 29.3,20 C29.1,20.2 29.2,20.7 28.8,20.7 C28.9,20.4 28.9,19.8 29.2,19.7 C29.1,18.4 29.7,17.2 30.6,17 L30.8,17 C31.8,17.1 31.5,18.6 32,19.3 C31.9,19.4 31.8,19.5 31.6,19.5 C31.5,19.5 31.6,19.8 31.6,19.9 C31.6,20.1 31.7,20.1 31.6,20.2 C31.4,20.2 31.4,20 31.4,19.9 C31.2,19.9 31.3,20.3 31.2,20.4 C31.1,19.9 30.8,19.7 30.7,19.3 C30.6,19.3 30.7,19 30.6,19 L30.3,19 C30.3,19.3 30.4,19.5 30.4,19.9 C30.5,20 30.5,20.3 30.4,20.4 L30.4,20.7 C30.3,20.7 30.3,20.6 30.2,20.7 C30.3,21.5 29.8,21.8 29.6,22.4 C29.4,22.4 29.4,22.3 29.3,22.3 Z M30.8,21.9 C30.9,21.2 30.3,20.5 30.8,20 C30.8,20.4 31,20.8 31.2,21 C31,21 31,21.3 31,21.5 C31.1,21.6 31,21.9 31.1,21.9 C31.2,22 31.3,22.2 31.6,22.3 C31.5,22.6 31.7,22.8 31.8,23 C31.7,23 31.7,23.1 31.6,23.1 C31.6,22.9 31,22.2 30.8,21.9 Z M31,22.8 C30.9,22.9 30.5,22.9 30.6,22.6 C30.8,22.5 31.1,22.6 31,22.8 Z M31.4,21.8 C31.1,21.9 31.1,21.6 31.2,21.4 C31.4,21.4 31.4,21.6 31.4,21.8 Z M31.5,20.4 C31.8,20.4 31.7,20.8 31.5,20.8 C31.5,20.7 31.4,20.5 31.5,20.4 Z M31.7,22.1 C31.8,21.9 31.7,21.6 31.7,21.4 C31.8,21.4 31.7,21.7 32,21.7 C32,21.8 31.9,21.9 31.9,22 L31.9,22.2 C31.8,22.2 31.5,22.2 31.7,22.1 Z M29.6,24 C29.6,23.9 29.7,23.9 29.6,23.8 C29.8,23.8 29.7,23.9 29.8,24 C29.8,24.1 29.7,24 29.6,24 Z M30.4,22.9 C30.3,22.8 30,22.8 30,23 C30,23.1 30.3,23 30.2,23.2 C30.1,23.3 29.9,23.2 29.9,23.1 C29.8,23.1 29.8,23.2 29.7,23.2 C29.9,23.5 30.2,23.6 30.2,24 L29.9,24 C29.8,23.7 29.7,23.3 29.3,23.3 C29.6,23.1 29.5,22.5 30.1,22.6 C30.3,22.7 30.4,22.7 30.4,22.9 Z M30.3,22.2 C30.3,22 30.5,22 30.6,22.1 C30.7,22.3 30.4,22.3 30.3,22.2 Z M31,24 C31.1,24.1 30.6,24.1 30.6,24 C30.6,23.7 31,23.4 30.7,23.2 C31.2,23.1 31.5,23.5 31.6,23.9 C31.3,23.8 31.1,23.7 30.9,23.5 C30.9,23.7 30.9,23.9 31,24 Z M32,24 C31.7,23.9 31.6,23.6 31.5,23.3 L31.7,23.3 C31.8,23.6 32.1,23.6 32,24 Z M31.8,20.1 L31.8,19.7 C32.1,19.7 32.1,20.1 31.8,20.1 Z M31.7,17.5 C31.3,17.3 31.6,16.4 31.8,16.2 C31.4,15.9 31,16.6 31.4,16.8 C31.2,16.9 30.7,16.9 30.4,16.9 C30.2,16.6 29.8,16.4 29.5,16.2 C29.2,16.3 29.1,16.4 28.9,16.6 C28.8,16.5 28.8,16.3 28.8,16.1 C29,16 29.4,16 29.6,15.9 C29.5,15.6 29.2,15.5 29,15.3 C28.7,15.3 28.7,15.7 28.3,15.7 C28.1,15.7 28.4,15.6 28.3,15.4 C28.6,15.2 28.8,15.2 29,14.9 C29.1,14.9 29.2,15 29.5,15 C29.6,14.6 29.1,14.5 29.4,14.2 C29.3,14.2 29.2,14.3 29.1,14.2 C29,14.3 28.6,14.3 28.5,14.2 C27.4,14.1 26.6,13.6 26.2,12.7 C26.4,12.8 26.7,12.7 26.8,12.6 C26.6,12.3 26.2,12.1 25.7,12.1 C25.4,11.7 25.1,11.1 24.9,10.6 C25.2,10.6 25.1,10.9 25.4,10.9 C25.6,11 25.5,10.7 25.7,10.7 C25.3,10.3 25,9.6 25.2,8.8 C25.3,8.8 25.3,9 25.3,9.1 C25.4,9.2 25.4,9 25.5,9 C25.4,9.1 25.5,9.3 25.7,9.3 C25.8,8.5 24.9,8.3 24.9,7.3 C25.3,7.3 25.5,7.6 25.9,7.7 C25.9,7.4 25.6,7.5 25.7,7.2 C25.1,7.2 24.9,6.7 24.5,6.4 C24.5,5.1 22.8,5.4 21.8,5.1 C21.8,4.9 22,5 22,4.9 C22,4.8 21.9,4.8 21.9,4.7 C20.9,4.7 20.4,4.2 20.2,3.5 C20.3,3.5 20.3,3.6 20.4,3.5 C20.5,3.6 20.8,3.6 20.9,3.5 C21.2,3.5 21.3,3.6 21.3,3.8 C21.8,4 22.5,3.9 22.9,4.1 C23,4.2 23.2,4.4 23.2,4.4 C23.3,4.4 23.4,4.2 23.6,4.2 C23.9,4.2 23.9,4.3 24.1,4.4 C25.5,4.3 26.8,5.7 26.9,7.1 C27,7.2 27,7.6 26.9,7.7 C26.9,8.2 26.7,8.5 26.6,8.8 C26.6,9 26.9,8.7 27,8.9 C27.1,9.6 26.7,10.6 27.2,11 C27.1,11.9 27.7,12.4 28.2,12.7 C28.4,12.7 28.4,12.6 28.5,12.7 C28.6,12.9 28.6,13.1 28.8,13.2 C28.9,13.1 28.9,12.7 29.1,12.7 C29.3,12.7 29.4,12.9 29.4,13.2 C29.3,13.2 29.3,13.1 29.2,13.2 C29.2,13.7 29.6,13.7 29.8,14 C29.9,14 29.9,13.9 30,14 C30,13.7 29.8,13.6 29.5,13.5 C29.5,13.4 29.7,13.5 29.8,13.4 C29.9,13 29.6,12.9 29.5,12.7 C29.5,12.6 29.7,12.6 29.8,12.5 C29.8,11.4 30.2,10.8 30.7,10 C31,9.5 31.5,8.8 31.4,8.3 C31.4,8.1 31.1,8 31.2,7.8 C31.4,7.8 31.3,8 31.5,7.9 C31.6,7.9 31.6,7.8 31.6,7.8 C31.5,7.1 30.9,6.8 30.4,6.5 C30.7,6.2 30.9,6.6 31.3,6.5 C31.3,6.8 31.6,6.8 31.8,7 C31.7,6.3 31.2,6.1 30.6,6 L30,6 C29.7,6 29.5,6.1 29.4,6.3 C29.4,5.4 30.3,5.1 31.3,5 C31.4,4.9 31.8,4.9 32,5 C32.1,5.4 32.5,5.5 32.7,5.7 C32.6,6.1 32.7,6.5 33,6.5 C33.2,6.5 33.4,6.3 33.7,6.3 C33.6,6.7 33.9,6.8 33.9,7.1 C34.4,6.6 33.7,6.1 33.7,5.5 C33.1,5.5 32.7,5.2 32.3,5 C32.4,4.7 32.8,4.8 33,4.8 C33.5,4.8 34,5.1 34.4,5.3 C34.8,5.5 35.4,5.8 35.5,6.2 C35,6.3 34.6,6.1 34.5,5.8 C34.2,5.9 34.3,6.5 34.7,6.5 C34.7,7 34.5,7.7 34.7,8.2 C34.8,8.4 35.1,8.5 34.9,8.7 C34.4,8.5 34.5,7.6 34.1,7.3 L34.1,7.7 C34.2,7.9 34.1,8.3 34.1,8.5 C34.1,8.8 34.1,9.1 34.2,9.3 C34.3,9.2 34.4,9 34.6,8.9 C34.8,9.5 34.8,10.2 35.1,10.7 C34.6,10.5 34.6,10 34.4,9.5 C34,9.9 34.5,10.6 34.9,10.7 C35.1,11.4 35.3,12.1 35.9,12.3 C35.5,12.7 35.1,12 34.9,11.6 C34.6,11.9 35,12.2 35.1,12.3 C34.8,12.5 34.6,12.1 34.5,11.8 C34.9,11.4 34.5,11 34.5,10.6 C34.4,10.6 34.3,10.6 34.3,10.7 C34.2,10.8 34.2,11.1 34.3,11.1 L34.5,11.1 L34.5,11.7 C34.3,11.7 34.3,11.6 34.2,11.5 C34.2,11.3 34.3,11.4 34.3,11.2 C34,11.2 34.1,11.5 33.7,11.4 C33.7,11.7 33.9,11.7 33.9,11.9 C34,11.9 34,11.8 34.1,11.9 C33.8,12.3 34.2,12.7 34.1,13.1 C33.8,13 33.5,12.8 33.5,12.4 C33.3,12.4 33.3,12.5 33.1,12.5 C33.4,12.7 33.1,13 33,13.2 C33.3,13.1 33.7,13.1 34,13.4 C34.1,13 34.6,13.1 34.9,12.9 C35.2,12.9 35.2,13.1 35.5,13.1 C35.5,13.3 34.9,13.3 34.9,13.1 C34.7,13.1 34.7,13.3 34.5,13.3 C34.4,13.6 34.8,13.4 35,13.5 C35,13.7 35,13.8 34.9,13.9 C34.6,13.9 34.4,13.8 34.1,13.8 C34,14.2 34.4,14 34.6,14 C34.5,14.2 34.7,14.3 34.6,14.3 C34.5,14.4 34.2,14.3 34.1,14.3 C33.9,14.3 33.9,14.4 33.8,14.5 C33.9,14.6 34,14.6 34.2,14.6 L34.7,14.6 C35,14.4 35.5,14.2 35.5,14.7 C35.3,14.7 35.3,14.5 35,14.6 C34.9,14.7 35.1,15 35,15.1 C34.9,15.1 34.9,15 34.8,15 L34.4,15 C34.2,15 34,15.2 33.8,15.2 C33.8,15.4 34,15.5 34.1,15.6 L34.5,15.8 C34.8,15.8 35,15.2 35.4,15.4 C35.3,15.8 34.8,15.6 34.9,16.1 C34.7,16.2 34.3,16.2 34.2,16.5 C34,16.4 33.8,16.4 33.7,16.5 C33.7,16.4 33.5,16.3 33.6,16.2 C33.2,16.1 33.2,16.5 32.8,16.5 C32.9,17 32.5,17.3 32.4,17.8 L32.4,18.1 C32.3,18.1 32.3,17.9 32.3,17.8 L32.2,17.8 C32.1,17.8 32.2,18 32,18 C32,17.6 32.2,17.5 32.4,17.4 C32.4,17.1 31.9,17.1 31.7,17.5 Z M34.5,6.8 L34.5,6.8 C34.6,7.1 34.6,7.9 34.5,7.9 L34.5,7.9 C34.4,7.6 34.4,6.8 34.5,6.8 Z M35.2,17.5 C35,17.3 35.3,17.1 35.2,17 C35,17 35.1,17.3 34.8,17.2 C34.6,16.9 34.9,16.8 35.3,16.8 C35.4,16.9 35.3,17.2 35.4,17.3 C35.4,17.4 35.2,17.3 35.2,17.5 Z M32.2,18.8 C32,18.7 32.3,18.4 32.4,18.4 L32.4,18.6 C32.2,18.6 32.1,18.6 32.2,18.8 Z M33.9,24 C33.6,24.1 33.6,23.8 33.4,23.7 C33.2,23.7 33.3,24 33.2,24 C32.9,23.9 33.3,23.6 33.2,23.4 C33.3,23.4 33.3,23.5 33.5,23.5 C33.5,23.5 33.6,23.5 33.6,23.4 C33.7,23.2 33.4,23.3 33.4,23.1 C33.5,23.1 33.6,23 33.7,23 C33.7,22.8 33.6,22.7 33.6,22.5 C33.7,22.6 33.8,22.8 34.1,22.7 C34.1,22.9 33.9,23 33.8,23.2 C33.8,23.5 33.9,23.7 33.9,24 Z M33.9,22.2 C33.9,22 34.3,21.9 34.2,22.2 C34.1,22.3 34,22.2 33.9,22.2 Z M34.7,24 L34.7,23.8 C34.8,23.8 34.8,23.9 34.9,23.9 C34.9,24.1 34.7,24 34.7,24 Z M35.2,23.8 C35,23.7 34.9,23.7 34.8,23.5 C34.6,23.6 34.5,23.8 34.4,24 L34.2,24 L34.2,23.7 C34.5,23.5 34.7,23.4 34.8,23 C34.5,23 34.6,23.5 34.3,23.5 C34.5,23.3 34.6,22.9 34.3,22.8 C34.3,22.5 34.8,22.3 34.9,22.6 C34.9,22.8 34.7,22.7 34.6,22.7 C34.9,23 35.3,23.2 35.2,23.8 Z M35.2,22 C35.4,22 35.5,22.4 35.3,22.5 C35.1,22.4 35.3,22.1 35.2,22 Z M35.7,24 C35.7,23.8 35.8,23.8 35.7,23.6 C35.8,23.6 35.8,23.7 35.9,23.6 C35.9,23.7 35.9,24.1 35.7,24 Z M36.1,23.9 C36.2,23.9 36.2,24 36.3,23.9 C36.3,24.1 36,24 36.1,23.9 Z M35.9,23.6 C35.8,23.6 35.9,23.4 35.8,23.4 C35.6,23.4 35.7,23.7 35.5,23.6 C35.7,23.4 35.6,23.1 35.7,22.9 C35.7,22.8 35.6,22.7 35.5,22.7 C35.4,22.7 35.4,22.8 35.3,22.8 C35.4,21.8 36.3,23.1 36.3,23.5 C36.2,23.6 36,23.6 35.9,23.6 Z M36.2,21.9 C36,21.9 36,21.6 35.7,21.6 C35.4,22 36.1,22 36.3,22.3 C36.2,23.1 36.9,23.2 37,23.9 C36.3,23.4 36,22.4 35.4,21.7 C35.4,21.5 35.6,21.5 35.6,21.3 C35.6,21.2 35.5,21.2 35.5,21.2 C35.3,21.2 35.5,21.5 35.3,21.5 C35.3,21.4 35.2,21.4 35.3,21.3 C35.2,21.1 35.3,20.8 35.3,20.6 L35.3,20.5 C35.6,20.7 35.8,20.9 36,21.1 C36,21.2 35.9,21.1 35.8,21.1 C35.8,21.4 36.2,21.4 36.2,21.9 Z M35.8,20.5 C35.5,20.4 35.3,20 35.4,19.6 C35.2,19.5 35.2,20.1 35.2,20.3 C35,20.2 35.1,20 35,19.8 C34.9,19.5 35.2,19.5 35.1,19.1 C35,19 34.8,19.1 34.8,18.9 C34.7,19 34.6,19 34.6,19.1 C34.7,19.2 34.8,19 34.8,19.1 C34.9,19.2 34.8,19.4 34.9,19.5 L34.8,19.5 C34.6,19.5 34.3,19.7 34.1,19.5 C34,19.8 34.5,19.7 34.7,19.7 C34.8,19.8 34.7,20.1 34.7,20.2 C34.7,20.3 34.8,20.4 34.8,20.4 C34.4,20.5 34.6,19.9 34.3,19.7 C34.1,20 34.3,20.4 34.5,20.5 C34.5,20.6 34.4,20.6 34.3,20.6 C34.4,21.1 35.2,21.1 35,21.7 C34.8,21.7 34.9,21.5 34.9,21.3 C34.6,21.3 34.8,21.6 34.7,21.7 C34.7,21.8 34.9,21.6 34.9,21.8 C34.8,21.9 34.7,21.8 34.5,21.8 C34.2,21.1 34.1,20.2 33.8,19.5 C33.9,19.2 34.1,18.9 34,18.5 C33.8,18.5 33.6,18.7 33.5,18.9 C33.5,19.1 33.6,19.3 33.6,19.6 C33.5,19.6 33.4,19.7 33.3,19.6 C33.2,19.9 33.5,20 33.6,20.1 C33.4,20.6 33.2,21.1 33.1,21.7 C33.1,21.7 33,21.7 33,21.6 C32.9,21.5 33,21.2 33,21.1 L33,20.9 C33.1,20.9 33.1,21 33.2,20.9 C33.2,20.5 33.3,20.3 33.2,19.9 C32.8,20.1 33.1,20.9 32.7,21 C32.8,21.3 32.8,21.6 32.8,22 C32.9,22.1 32.9,22.4 32.8,22.5 C32.4,22.6 32.6,23.3 32.2,23.4 C32.2,22.8 32.4,22.5 32.6,22.1 C32.6,21.8 32.5,21.4 32.6,21.1 C32.6,20.4 32.7,19.9 32.9,19.5 C32.5,19.5 32.4,19.9 32.4,20.4 C32.4,20.7 32.5,21.1 32.4,21.4 C32.4,21.8 32.5,22.3 32.2,22.4 L32.2,21.7 C32.1,21.6 32.1,21.2 32.2,21 C32.3,19.8 32.3,17.9 32.9,17 C33,16.8 33.4,16.5 33.6,16.5 C33.9,16.5 34,16.9 34.4,16.9 C34.4,17.4 34.8,17.4 35,17.7 C35,17.8 34.9,17.8 34.8,17.8 C35.5,18.9 35.5,19.8 35.8,20.5 Z M34.9,21.3 L34.9,20.9 C35,20.6 35.2,21.4 34.9,21.3 Z M35.8,17.9 C35.7,17.8 35.6,17.8 35.5,17.7 C35.3,17.9 35.3,18.1 35.3,17.6 C35.4,17.6 35.4,17.7 35.4,17.7 C35.4,17.6 35.4,17.3 35.5,17.4 C35.7,17.4 35.7,17.3 35.7,17.2 C35.9,17.3 35.7,17.4 35.7,17.6 C35.7,17.7 35.8,17.7 35.9,17.7 C36,17.8 35.8,17.7 35.8,17.9 Z M36.2,16.3 C36.1,16.2 36,16.1 36,15.9 C36.2,16 36.4,16.1 36.2,16.3 Z M36.4,17.5 C36.3,17.5 36.3,17.4 36.2,17.4 C36.2,17.2 36.3,17.2 36.5,17.2 C36.5,17.4 36.4,17.4 36.4,17.5 Z M36.6,18.1 C36.4,18 36.6,17.8 36.7,17.8 C36.8,17.7 36.6,18 36.6,18.1 Z M37.2,18.5 C37.1,18.5 36.7,18.6 36.7,18.3 C36.8,18.1 37,18 37.3,18 C37.3,17.7 37.2,17.6 37,17.5 C37,17.3 37.2,17.4 37.2,17.3 C37.3,17.4 37.4,17.7 37.7,17.5 C37.7,18.3 38.4,18.4 38.7,18.9 C38.3,19.6 37.1,19.2 37.2,18.5 Z M40.4,19 C40,18.9 39.9,18.5 39.5,18.5 C39.4,18.6 39.5,18.8 39.7,18.7 C39.6,18.8 39.4,18.7 39.3,18.7 C39.4,18.3 39.1,18 39,17.8 C38.9,17.8 38.9,18 38.9,18.1 C38.9,18.2 39,18.1 39.1,18.1 C39.1,18.2 39,18.3 39.1,18.5 C38.7,18.4 38.6,18 38.3,17.8 C38.4,17.5 38.8,17.4 39,17.1 C39.3,17.2 39.4,17.5 39.8,17.5 C39.8,17.7 39.6,17.7 39.6,17.8 C40.1,17.9 40.8,18.3 40.4,19 Z M38.7,16.8 L38.7,16.5 C38.9,16.4 38.9,16.7 38.9,16.8 L38.7,16.8 Z M42.3,17.5 C42.2,18 41.4,17.8 40.9,17.9 C40.7,17.7 40.4,17.6 40.4,17.3 C40.1,17.2 40.3,17.6 40,17.6 C39.9,17.4 39.9,17 40,16.8 C39.9,16.7 39.8,16.6 39.6,16.6 C39.5,16.8 39.7,16.9 39.8,17 C39.8,17.2 39.8,17.5 39.6,17.5 C39.5,17.4 39.6,17.1 39.6,17 C39.5,16.9 39.5,17.1 39.4,17 C39.3,17 39.5,17.1 39.4,17.2 C39.2,17.2 39.1,17.1 39,17.1 C39,16.9 39,16.8 39.1,16.7 C39.1,16.5 38.9,16.5 38.9,16.4 C38.7,16.4 38.6,16.7 38.4,16.5 C38.6,15.8 39.1,16.3 39.4,16.5 C39.5,16.2 39.1,16.1 39,15.8 C39.2,15.9 39.4,15.7 39.6,15.8 C39.6,15.9 39.5,15.8 39.5,15.9 C39.5,16 39.6,16.1 39.7,16.1 C39.8,16.1 39.7,15.9 39.8,15.9 C39.9,16 39.8,16.2 39.8,16.3 C40,16.4 40.2,16.4 40.4,16.3 C41.4,16.1 41.7,17 42.3,17.5 Z M43.9,16.4 C43.7,16.4 43.7,16.5 43.5,16.4 C43.4,16.5 43,16.5 42.9,16.4 C42.2,16.3 41.7,16.1 41.2,15.8 C41.2,16.1 41.4,16 41.5,16.1 C41.2,16.3 40.9,15.8 40.5,15.9 C40.5,15.8 40.4,15.8 40.4,15.7 L40.4,15.7 C40.2,15.7 40.2,15.6 39.9,15.6 C40,15.5 40.1,15.4 40.3,15.4 C40.3,15.3 40.5,15.4 40.6,15.4 C40.6,15.4 40.3,15.5 40.4,15.7 C40.7,15.6 41.1,15.3 41.6,15.5 L41.6,15.3 C41.5,15.2 41.4,15.3 41.2,15.3 L41.2,15.1 C41,15.1 41.1,15.3 40.8,15.3 C40.7,15.2 40.9,15.1 41,15 C40.8,14.7 40.7,15.1 40.3,15 C40.4,14.9 40.4,14.7 40.3,14.6 C40.7,14.7 41.4,14.9 41.7,15.3 C41.9,15.3 42.1,15.2 42.2,15.1 C42.8,15.3 44,15.3 43.9,16.4 Z M44.4,13.2 C44.3,13.3 44.5,13.5 44.4,13.6 C44.2,13.6 44,13.5 43.9,13.6 C44.3,14.1 45.3,14 45.6,14.6 C45.5,15 44.9,15.1 44.5,15.3 C44.2,15 43.8,15.1 43.4,15.1 C43.1,15.1 42.8,14.8 42.4,14.7 C41.9,14.6 41.3,14.5 40.7,14.4 C40.7,14.2 40.9,14.1 40.9,14 C41,13.9 41.2,13.9 41.4,13.9 C41.5,14.2 42,14 42.2,14 C42.2,14.1 42.3,14.1 42.3,14.2 C42.6,14.1 42.3,13.8 42.1,13.8 C42.3,13.2 43.2,13.4 43.6,13.8 C43.7,13.7 43.8,13.7 43.8,13.6 C43.7,12.9 42.3,13.5 42.2,12.8 C42.3,12.8 42.3,12.7 42.3,12.7 C42.4,12.7 42.5,12.8 42.6,12.7 C42.9,12.7 43.3,12.6 43.6,12.7 C43.7,12.7 43.8,12.8 43.9,12.7 C44,12.6 43.7,12.5 43.7,12.4 C43.4,12.6 42.9,12.3 42.7,11.9 C43.1,12 43.6,12.1 43.9,11.8 C44.6,12.2 45.7,12.2 46.4,12.5 C46.1,12.7 45.6,12.6 45.3,12.5 C45.2,12.5 45.2,12.6 45.2,12.7 C45.5,13.1 46.3,12.8 46.9,12.8 C46.6,13.9 44.9,13.7 44.4,13.2 Z M46.9,12.1 C46.9,12.2 46.5,12.2 46.5,12.1 C46,12.1 45.8,11.4 45.6,12.1 C45.4,12 45.3,12.1 45.2,12.2 C45.1,12 44.7,12 44.5,11.8 C44.5,11.4 45.1,11.5 45,11.1 C45.2,11.1 45.1,11.3 45.2,11.3 C45.1,11.5 44.8,11.5 44.7,11.8 C45,11.9 45.2,11.5 45.4,11.4 C45.3,11.2 45.3,10.9 45,11 C45,10.9 45.1,10.8 45.1,10.7 C45.3,10.7 45.2,10.9 45.3,11 C45.4,11 45.5,10.9 45.5,10.8 C46.2,11.1 47.5,10.9 48.1,11.2 C48.1,11.8 47.5,12 46.9,12.1 Z M50.1,10.4 C49.5,10 48.7,10.7 47.9,10.6 C47.8,10.7 47.4,10.7 47.3,10.6 C47.1,10.6 47.1,10.5 46.9,10.6 C47.1,10 48.2,10.4 48.6,10 C48.2,9.8 47.6,10 47.2,10 C47.3,9.3 48.3,9.5 48.9,9.4 L49.5,9.4 C50,9.4 50.4,9.5 50.6,9.8 C50.5,10.1 50.1,10 50.1,10.4 Z M52.1,8.9 C52.1,8.7 52.3,8.8 52.4,8.8 C52.4,8.7 52.4,8.6 52.3,8.6 C52,8.5 52.1,8.8 52.1,8.9 C51.4,9 50.6,9.1 50.2,8.7 C50.1,8.7 50.1,8.8 50.1,9 C50.2,9.1 49.6,9.1 49.6,9 C49.1,9 48.6,9 48.2,9.1 C48.1,8.8 48,8.7 47.9,8.5 C48,8.4 48.2,8.4 48.3,8.5 C48.3,8.6 48.2,8.6 48.2,8.7 C48.4,8.7 48.8,8.6 49.2,8.6 C49.4,8.6 49.8,8.7 50,8.6 L50.4,8.6 C50.3,8.4 49.9,8.4 49.5,8.4 C49.4,8.5 49,8.5 48.9,8.4 C48.8,8.4 48.8,8.3 48.7,8.4 C48.8,8.2 49.1,8.1 49.4,8.1 C49.5,8 49.7,8.1 49.8,8.1 L50,8.1 L51,8.1 C51.2,8.1 51.4,8 51.5,8 C52.1,8.3 53,7.8 53.6,8 C53.6,8.7 52.6,8.6 52.1,8.9 Z M56,6.8 C55.5,6.8 55.2,6.7 55.1,7.1 C54.6,7.1 54.1,7.2 53.6,7.1 C53.5,7.2 53.7,7.3 53.7,7.4 C53.1,7.6 52.7,7.3 52.4,7.1 C52.3,7.2 52.4,7.3 52.4,7.5 C51.3,7.7 49.9,7.7 48.7,7.7 C48.7,7.7 48.6,7.6 48.7,7.5 C48.7,7.4 48.6,7.6 48.4,7.5 C48.8,6.8 50.7,7.6 51,6.8 C50.7,6.6 50.7,7 50.3,7 C50.2,7 50.2,6.8 50.2,6.8 C49.8,7.1 49.2,7.1 48.8,7.2 C48.7,7.1 48.9,6.9 49,6.8 C49.1,6.8 49.1,6.9 49.1,7 C49.3,6.9 49.4,6.8 49.6,6.6 L49.9,6.6 L50.4,6.6 C51.5,6.6 52.2,6.1 53.2,6.1 L54.3,6.1 C55,6.1 55.7,5.8 56.3,5.8 C56.7,5.8 57.4,5.8 57.4,6.1 C57.4,6.3 56.5,6.8 56,6.8 Z M59.3,4.8 C59.2,5 59.6,4.9 59.5,5.2 C59.4,5.4 59.1,5.3 58.9,5.4 C58.7,5.5 58.4,5.4 58.2,5.4 C57.9,5.4 57.8,5.5 57.6,5.6 L56.5,5.6 C55.7,5.6 55.1,5.8 54.3,5.8 C54.1,5.9 53.7,5.8 53.4,5.8 C53.3,5.8 53.4,6 53.3,6 C53.1,6 53.2,5.8 53,5.8 C52,6.4 50.2,6.2 48.9,6.5 C48.9,6.3 49.1,6.2 49.3,6.2 C49.3,6.1 49.7,6.1 49.7,6.2 L50.2,6.2 C50.2,6 50.1,6 50.1,5.9 C50.4,6 51,6 51.1,5.9 C51.1,5.8 50.9,5.8 50.8,5.8 C50.8,5.7 50.9,5.7 50.9,5.6 C51.1,5.6 51,6 51.3,5.9 L51.3,5.9 C51.5,5.9 51.4,5.6 51.4,5.4 L51.4,5.4 C51.6,5.4 51.6,5.5 51.8,5.5 C52.3,4.8 53.5,6.2 53.7,5.1 C54.5,5 55.1,4.5 56,4.6 C56.1,4.6 56.2,4.5 56.2,4.4 L56.4,4.4 L57.1,4.4 C58.5,4.4 59.7,3.8 60.9,3.7 C61.1,3.7 61.5,3.7 61.6,3.9 C61.5,4.8 60.3,4.9 59.3,4.8 Z"></path>
                        </g>
                        <g transform="translate(18.000000, 24.000000)">
                            <polygon fill="#8E1538" points="15 8.7 5 23.6 5.8 24.7 12.7 25.1 15.3 26.8 18.1 25 25.3 24.4 25.4 23.8"></polygon>
                            <path d="M15,8.5 L4.7,23.9 C4.7,23.9 3.8,22 3.9,21.2 C4,20.4 3.7,4.2 3.7,4.2 L1.6,0.6 L29.2,0.2 L26.6,4.4 L26.6,21.5 L26.3,23.3 L25.3,24.4 L15,8.5 Z" fill="#0A4424"></path>
                            <g transform="translate(8.000000, 11.000000)" fill="#F4AA2C">
                                <path d="M6.6,2.4 C6.6,2.7 6.6,2.9 6.5,3.1 C6.3,3.1 6.4,3 6.2,3 C6.4,2 6.4,0.8 7.1,0.3 C7.8,0.7 7.8,2 7.7,3.1 C7.9,3 8.4,2.6 8.9,2.9 C9.1,2.9 8.9,3 8.9,3 C9.4,2.9 9.7,3.4 9.6,4.1 L9.6,4.7 L9.6,4.9 L9.5,4.9 C9.1,4.9 9,4.7 8.6,4.7 C8.5,4.6 8.2,4.6 8.1,4.7 C8.1,4.8 8.2,4.9 8.1,5 C8,5 7.8,5 7.8,4.9 C7.7,4.9 7.7,5 7.6,5.1 C7.6,5.3 7.8,5.3 8,5.3 C8.1,5.3 8.1,5.6 8.2,5.5 C8.4,5.3 8,5.4 8,5.3 C8.2,5 8.8,5.2 8.7,5.6 C8.9,5.6 8.7,5.3 8.9,5.3 C9.1,5.3 9,5.5 9.2,5.5 C9.3,5.4 9.5,5.4 9.5,5.3 C9.6,5.3 9.5,5.2 9.5,5.1 C9.7,5.1 9.8,5.3 9.8,5.5 L9.8,6.3 L9.8,6.3 C9.4,6.4 9.3,6.2 9.1,6.1 C9,6.1 9,6.2 8.9,6.2 C8.9,6.4 8.8,6.6 8.9,6.7 C9,6.8 9,6.5 9,6.4 C9.3,6.2 9.2,6.7 9.2,6.9 C8.8,7 8.5,7.1 8.1,7 C8,7 8.2,7.1 8.2,7.2 C8,7.7 7.6,8.1 7.1,8.4 C6.9,8 6.4,7.5 6.7,7 C6.6,6.9 6.5,6.9 6.3,6.9 C6.1,6.9 6.2,7.4 6,7.3 C6.2,8 5.7,8.3 5.7,8.9 C6.4,9.4 7.1,9.8 7.7,10.3 C7.5,10.4 7.2,10.4 6.9,10.4 C6.5,10.4 6.1,10.3 5.8,10.4 C5.4,11 6,11.6 6.8,11.4 C6.8,11.6 6.6,11.6 6.5,11.8 C6.3,11.8 6.4,11.6 6.3,11.6 C6.2,11.6 6.1,11.7 6.1,11.8 C6.1,11.9 6.4,11.8 6.4,12 C6.1,12.1 5.9,12.6 5.6,12.5 C5.6,12.3 5.8,12.4 5.8,12.2 C5.4,12.1 5.3,12.6 5,12.6 C5.2,12.8 5.7,12.4 5.8,12.8 C5.9,12.8 5.8,12.6 5.9,12.6 C6.1,12.6 6.1,12.7 6.2,12.8 C6.6,12.6 7,12.4 7.3,12.1 C7.3,12 7.2,12 7.2,12 C7,12.1 6.8,12.6 6.4,12.4 C6.7,12.3 6.9,12 7.1,11.8 C7.4,11.8 7.4,12 7.8,11.9 C7.8,12.1 7.9,12.2 7.9,12.4 C7.1,12.5 6.8,13.3 6,13.4 C5.3,13.5 4.7,13.1 3.8,13.3 C3.7,13.2 3.4,13.3 3.2,13.3 C2.3,13.3 1.6,13.2 1,12.9 C1.2,11.6 2.7,11.7 4.1,11.5 C4.3,11.4 4.2,11 4.5,10.9 C4.5,10.9 4.4,10.7 4.3,10.8 L3.2,10.8 C2.7,10.8 2,10.7 1.5,10.8 L0.7,10.8 C0.7,10.7 0.8,10.6 0.8,10.6 C0.8,10.5 0.7,10.7 0.6,10.6 C0.8,9.8 1.7,9.6 2.5,9.1 C3,8.8 3.6,8.5 4,8.3 C4.3,8.4 4.7,8.7 5,8.5 C5.2,8.5 5.1,8.7 5.1,8.9 C5,9 4.8,8.9 4.6,8.9 C4.6,9.2 5.1,8.8 5.1,9.1 C5.3,9.1 5.4,8.8 5.6,9 L5.6,8.7 C5.4,8.6 5.5,8.9 5.3,8.9 C5.1,8.5 5.6,8.3 5.8,8.2 C5.7,8.1 5.4,8.2 5.3,8 C5.1,8.1 5.3,8.4 5,8.4 C4.9,7.8 5.2,7.6 5.4,7.2 C5.4,7 5.2,7 5.2,6.9 C4.8,7.2 4.4,7.5 3.9,7.8 C3.5,7.1 3.8,6 4.4,5.7 C4.4,5.6 4.3,5.5 4.3,5.3 C4.2,5.3 4.2,5.4 4.1,5.4 C4.1,4.5 4.6,4 5.1,3.6 C5.2,3.7 5.3,3.8 5.5,3.8 C5.5,3.6 5.4,3.5 5.5,3.3 C5.7,3.3 5.8,3.5 6,3.4 C6,3.5 6.2,3.4 6.2,3.4 C6.2,3.4 6.2,3.5 6.1,3.5 C6.1,3.6 6.2,3.5 6.3,3.5 C6.5,3.5 6.5,3.7 6.6,3.7 C6.8,3.3 6.6,2.6 6.7,2 C6.8,2 6.8,1.9 6.9,1.9 C6.9,1.9 7,1.9 7,1.8 L7.2,1.8 C7.2,1.5 7.2,1.2 7,1 C6.8,1 6.5,1.5 6.8,1.7 C6.8,1.8 6.9,1.7 6.9,1.8 C6.5,1.5 6.6,2 6.6,2.4 Z M8.7,3.2 C8.5,3.2 8.3,3.4 8,3.4 C8,3.6 8.2,3.5 8.3,3.6 C8.2,3.9 7.6,3.9 7.8,4.3 C8,4.3 8,4 8.3,4.1 C8.4,3.9 8.4,3.7 8.7,3.6 C8.8,3.6 8.8,3.7 8.8,3.8 C8.9,3.8 8.9,3.7 9,3.6 C9.1,3.8 9.2,4 9.5,4.1 C9.6,3.9 9.4,3.8 9.3,3.6 C9.3,3.5 9.5,3.5 9.5,3.4 C9.4,3.3 9.3,3.4 9.2,3.4 C9.2,3.3 9.3,3.3 9.3,3.2 C9.1,3.2 9,3.3 8.8,3.3 C8.8,3.4 8.6,3.4 8.7,3.2 Z M8.2,5.3 C8,5.7 8.4,6.1 8.7,6.3 C8.8,5.8 8.3,5.7 8.2,5.3 Z M6.1,3.3 C6,3.3 6.1,3.5 6,3.5 C5.2,3.5 5.3,4.2 4.8,4.5 C5.1,4.6 5.2,4.3 5.3,4.3 C5.4,4.3 5.5,4.4 5.6,4.5 C5.7,4.4 5.9,4.4 6,4.4 L6,4.1 C5.8,4.1 5.7,4.3 5.5,4.3 C5.4,4.3 5.4,4.2 5.4,4.1 C5.7,4.1 5.8,3.8 6.1,3.8 C6.3,3.9 6.3,4.1 6.7,4.1 C6.7,3.6 6.2,3.7 6.1,3.3 C6.2,3.4 6.2,3.3 6.1,3.3 Z M5,3.9 C4.9,4 4.7,3.9 4.7,4.1 C4.7,4.2 5,4.1 5.1,4.1 C5.1,4 5,4 5,3.9 Z M7.1,2 C7,2.1 7,2.2 7,2.4 C7.3,2.5 7.4,2 7.1,2 Z M7.1,3.6 C7.4,3.7 7.2,2.8 7.4,2.7 C7.2,2.7 7.1,2.6 7.1,2.8 C7,3 7.1,3.3 7.1,3.6 Z M7.7,3.6 L7.7,3.6 C7.6,3.8 8.2,3.7 7.9,3.6 C8,3.5 7.7,3.5 7.7,3.6 Z M6.4,4.1 C6.3,3.9 6.3,4.4 6.4,4.4 C6.5,4.3 6.7,4.4 6.7,4.2 C6.6,4.1 6.5,4.2 6.4,4.1 Z M4.5,4.9 L4.5,4.9 C4.7,4.9 4.7,4.8 4.7,4.7 C4.6,4.7 4.5,4.2 4.5,4.4 C4.4,4.4 4.4,4.8 4.5,4.9 Z M7.2,4.2 C7.1,4.2 7.1,4.5 6.9,4.3 C6.9,4.4 6.9,4.5 7,4.5 C7.2,4.5 7.2,4.4 7.2,4.2 Z M6.7,4.8 C6.8,4.8 6.8,4.7 6.9,4.8 L6.9,4.5 C6.7,4.5 6.7,4.6 6.7,4.8 Z M5.6,4.9 L5.6,4.9 C5.7,4.9 5.8,5 5.8,5.1 C5.6,5.2 5.5,5.4 5.3,5.5 C5.2,5.4 5.1,5.4 5.1,5.2 C5.4,5.2 5.5,5.1 5.6,4.9 C5.1,4.9 4.8,5.1 4.7,5.4 C4.7,5.4 4.6,5.3 4.5,5.4 C4.4,5.5 4.5,5.7 4.5,5.8 C4.3,5.8 4.2,6.1 4.2,6.2 C4.4,6.2 4.4,6 4.5,5.9 L4.5,5.9 C4.6,5.8 4.8,5.7 4.7,5.5 C4.8,5.5 5,5.5 5,5.6 C4.9,5.7 4.9,6 4.6,5.9 C4.5,5.9 4.5,6.3 4.6,6.3 C4.6,6.4 4.6,6.5 4.7,6.5 C4.9,6.4 4.7,5.9 4.9,5.8 C4.9,6 4.9,6.1 5.1,6.1 C5.3,6.1 5.2,5.8 5.3,5.6 C5.9,5.6 6.3,5.4 6.4,5 C6.2,5 6,4.9 5.8,4.9 C5.9,4.8 5.3,4.9 5.6,4.9 Z M7.4,5.1 C7.4,5.4 7.8,5.5 7.6,5.8 C7.3,5.8 7.4,5.4 7.1,5.4 C7,5.5 7,5.5 7,5.7 C7,5.8 7.2,5.8 7.2,5.8 C7.3,6.2 7.2,6.8 7.4,7.1 C7.5,7 7.6,6.8 7.5,6.6 C7.7,6.6 7.9,6.6 8,6.5 C8,6.6 8,6.8 8.1,6.8 C8.1,6.4 8,6.1 7.9,5.9 C7.8,6.1 8,6.5 7.6,6.4 C7.5,5.9 7.9,5.9 7.8,5.5 C7.7,5.4 7.7,5 7.4,5.1 Z M6.5,5.8 C6.9,5.8 7.2,5.4 7,5.1 C6.7,5.5 6.3,5.9 6,6.3 C5.9,6.3 5.9,6.2 5.8,6.3 C5.9,6.5 6,6.7 6.3,6.7 C6.3,6.6 6.4,6.6 6.4,6.4 C6.4,6.3 6.2,6.3 6.2,6.2 C6.2,6 6.5,6.1 6.7,6.1 C6.7,5.9 6.4,6 6.5,5.8 Z M9.7,5.3 C9.6,5.4 9.7,5.5 9.7,5.7 C10,5.9 10,5.2 9.7,5.3 Z M4.5,6.2 C4.4,6.3 4.1,6.6 4.1,6.9 C4.2,6.9 4.2,7 4.3,7 C4.4,6.9 4.3,6.6 4.5,6.6 C4.6,6.7 4.5,6.3 4.5,6.2 Z M6,7 C6,6.8 5.9,6.7 5.7,6.7 C5.7,7 5.4,7 5.5,7.3 C5.6,7.3 5.5,7.4 5.6,7.4 L6,7.4 C5.9,7.3 6,7.3 6,7 C6,7.1 6,7 6,7 Z M8,7.4 C8.1,7.3 8.1,7 7.9,6.9 C8,7.1 7.8,7.3 8,7.4 Z M3.5,8.4 C3.5,8.6 3.3,8.7 3.2,8.8 C3.1,9.2 3.4,9.1 3.4,9.3 C3.5,9.2 3.6,9.2 3.6,9 C3.5,9 3.4,9 3.4,8.9 C3.5,8.8 3.4,8.6 3.5,8.6 C3.6,8.7 3.7,8.7 3.8,8.8 C4,8.7 4.4,8.8 4.4,8.4 C4.1,8.4 4,8.5 3.9,8.6 C3.8,8.5 3.8,8.3 3.5,8.4 Z M2.6,9.2 C2.9,9.3 3.1,9.2 3.1,8.9 C2.9,9 2.6,9 2.6,9.2 Z M4.5,9 C4.5,8.9 4.4,8.9 4.3,8.9 C4.2,9.2 3.9,9.1 3.9,9.4 C4.2,9.4 4.2,9.1 4.4,9.1 C4.5,9.1 4.4,9.3 4.4,9.3 C4.3,9.4 4.4,9.6 4.4,9.8 L4.6,9.8 C4.6,9.6 4.4,9.6 4.4,9.4 C4.4,9.3 4.6,9.1 4.5,9 Z M4.9,10 L5.1,10 C5.1,9.8 5,9.7 5,9.5 C5.1,9.3 5.2,9.3 5.4,9.2 C5,8.7 4.7,9.6 4.9,10 Z M6.8,9.7 C6.4,9.9 6.1,9.5 5.6,9.7 C5.6,9.6 5.5,9.6 5.6,9.4 L5.3,9.4 C5.4,9.8 6.1,9.8 6.5,10 L6.5,9.9 C6.7,9.8 7,9.8 6.8,9.7 Z M1.7,9.5 C1.6,9.7 1.3,9.7 1.2,9.9 C1.4,9.9 1.4,10 1.6,10 C1.7,9.9 1.7,9.8 1.9,9.8 C1.9,9.6 1.8,9.6 1.7,9.5 Z M3.1,9.6 C3,9.9 2.6,9.5 2.4,9.8 L2.4,9.6 C2.2,9.7 2,9.8 1.9,10.1 C2,10.2 2.1,9.9 2.4,9.9 C2.5,9.9 2.5,10.1 2.6,10.1 C2.8,9.8 3.2,10.1 3.6,10.1 C3.6,9.9 3.6,9.8 3.5,9.8 C3.5,9.9 3.5,10 3.3,10 C3.3,9.8 3.3,9.6 3.1,9.6 Z M5.4,10 C5.1,10 5,10.2 4.7,10.2 C4.7,10.6 4.6,10.8 4.6,11.2 C4.9,11.1 5,10.9 5.4,11 C5.4,10.8 5.4,10.7 5.3,10.6 C5.2,10.7 4.9,10.6 4.8,10.5 C5.1,10.4 5.5,10.2 5.4,10 Z M2.7,11.4 C2.7,11.6 3,11.5 2.9,11.7 C2.7,11.8 2.5,11.8 2.3,11.9 C2.4,12.1 2.5,12.3 2.9,12.2 C3.1,11.9 3.5,11.3 3.9,11.7 C3.8,11.5 3.9,11.3 4,11.2 C3.7,11.3 3.2,11.3 2.7,11.4 Z M1.8,11.9 C1.9,12 2.3,12 2.3,11.9 C2.2,11.8 1.8,11.6 1.8,11.9 Z M5.3,11.3 C5.4,11.6 5,11.6 5,11.8 C5.3,11.8 5.3,11.6 5.6,11.6 C5.5,11.4 5.5,11.3 5.3,11.3 Z M4.4,11.8 C4.4,11.7 4.5,11.7 4.5,11.6 L4.3,11.6 C4.2,11.7 4.3,11.8 4.4,11.8 Z M4.6,11.9 C4.5,12 4,12.1 3.9,12.4 C4.3,12.3 4.5,12.2 4.6,11.9 Z M5,12.1 C4.8,12 4.6,12.3 4.5,12.4 C4.8,12.4 5,12.3 5,12.1 Z M6.2,9.2 L5.9,9.2 L5.9,9.4 C6.1,9.4 6.2,9.4 6.2,9.2 Z"></path>
                                <path d="M9.4,12.9 C9,13 8.8,12.5 8.6,12.8 C8.5,12.6 8.2,12.5 8.1,12.3 C8.3,11.8 8.8,11.6 9.3,11.3 C9.4,10.7 9.3,10.1 9.3,9.4 C10.7,8.9 12.3,9 13.8,9.4 C13.8,10 13.9,10.7 13.9,11.3 C14.3,11.6 15,11.4 15.3,11.8 C14.9,12.6 13.9,12.9 12.8,13 C12.6,13 12.6,12.9 12.5,12.9 C12.4,12.9 12.3,13 12.3,13.2 C12.1,13.2 12.1,12.9 11.9,12.8 C11.7,12.8 11.7,12.9 11.7,13 C11.6,13 11.6,12.9 11.5,12.8 C11.3,12.8 11.3,13 11.1,13 C10.8,12.7 10.3,12.8 9.8,12.8 C9.7,12.9 9.5,12.9 9.4,12.9 Z M10.1,9.4 C11.1,9.5 12.4,9.9 13.3,9.4 C12.2,9.3 11,9 10.1,9.4 Z M9.6,9.7 L9.6,10.1 C9.8,10.1 9.9,10.2 10.1,10.2 L10.1,9.7 L9.6,9.7 Z M13,10.2 C13.1,10.4 13.3,10.1 13.5,10.2 L13.5,9.7 C13.3,9.7 13.2,9.8 13,9.9 L13,10.2 Z M10.7,9.9 C10.5,9.8 10.4,9.8 10.2,9.8 L10.2,10.3 C10.3,10.3 10.4,10.4 10.6,10.4 C10.8,10.5 10.8,9.9 10.7,9.9 Z M10.9,9.9 L10.9,10.4 C11.1,10.4 11.2,10.5 11.4,10.4 L11.4,9.9 C11.2,10 11.1,9.9 10.9,9.9 Z M12.4,10.4 C12.6,10.4 12.7,10.4 12.8,10.3 L12.8,9.8 C12.6,9.8 12.5,9.9 12.3,9.9 C12.3,10.1 12.4,10.3 12.4,10.4 Z M12.1,10.5 L12.1,10 C12,10 11.9,9.9 11.7,10 C11.7,10.2 11.8,10.3 11.7,10.5 C11.8,10.4 12,10.4 12.1,10.5 Z M9.6,10.4 C9.6,10.5 9.5,10.6 9.6,10.7 C9.7,10.8 9.9,10.8 10.1,10.8 L10.1,10.4 C9.9,10.5 9.8,10.4 9.6,10.4 Z M13.1,11 C13.3,10.9 13.5,10.9 13.6,10.8 L13.6,10.4 C13.4,10.4 13.3,10.5 13.1,10.5 C13,10.6 13,10.9 13.1,11 Z M10.4,10.5 C10.2,10.3 10.1,10.8 10.2,10.9 L10.2,10.9 C10.4,10.9 10.5,11 10.7,10.9 L10.7,10.5 C10.6,10.6 10.6,10.5 10.4,10.5 Z M11,10.6 L11,11 C11.2,11 11.3,11.1 11.5,11.1 C11.5,10.9 11.4,10.9 11.5,10.7 C11.2,10.7 11.2,10.6 11,10.6 Z M12.4,11.1 C12.6,11.1 12.7,11 12.9,11 L12.9,10.6 C12.8,10.6 12.7,10.7 12.6,10.7 L12.4,10.7 C12.3,10.8 12.3,11.1 12.4,11.1 Z M12.1,11.2 L12.1,10.8 C12,10.7 11.9,10.8 11.7,10.8 L11.7,11.2 L12.1,11.2 Z M9.6,11 L9.6,11.4 C9.8,11.4 9.9,11.5 10.1,11.5 L10.1,11.1 C9.9,11.1 9.8,11 9.6,11 Z M13.6,11.1 C13.4,11.1 13.3,11.2 13.1,11.3 L13.1,11.7 C13.4,11.6 13.7,11.5 13.6,11.1 Z M10.3,11.2 L10.3,11.6 C10.5,11.6 10.6,11.7 10.8,11.7 L10.8,11.4 C10.6,11.3 10.5,11.2 10.3,11.2 Z M11,11.7 C11.2,11.7 11.3,11.8 11.5,11.8 L11.5,11.4 C11.3,11.4 11.2,11.3 11,11.4 C11,11.5 11.1,11.5 11,11.7 Z M12.4,11.4 L12.4,11.8 C12.6,11.8 12.7,11.7 12.9,11.7 L12.9,11.3 C12.6,11.3 12.6,11.4 12.4,11.4 Z M11.7,11.8 L12.1,11.8 L12.1,11.4 C11.9,11.5 11.7,11.3 11.7,11.4 L11.7,11.8 Z M10.2,12.3 C10.1,12.1 9.6,12.3 9.5,12.1 C9.4,11.9 9.8,11.9 9.7,11.7 C9.4,11.7 9.5,12.1 9.2,12.1 C9.3,11.9 9.2,11.7 9.1,11.6 C8.9,11.8 8.5,11.8 8.4,12.1 C8.9,12.2 9.5,12.4 9.9,12.4 L10.3,12.4 C10.7,12.4 11,12.4 11,12.1 C10.6,12.2 10.4,12.2 10.2,12.3 C10.2,12.4 10.2,12.3 10.2,12.3 Z M13.9,11.9 C13.9,11.8 13.9,11.7 13.8,11.7 C13.6,12.1 13.2,12.2 12.9,12.4 C13,12.4 12.9,12.5 13,12.5 C13.2,12.4 13.4,12.1 13.6,12.2 C13.6,12.4 13.4,12.3 13.4,12.5 C13.7,12.5 13.7,12.2 13.9,12.1 C14,12.2 13.9,12.4 14.1,12.4 C14.1,12.2 14.1,12 14,11.9 C14.2,11.9 14.3,11.7 14.2,11.6 C14.1,11.7 14.1,11.6 14,11.6 C14,11.8 13.9,11.9 13.9,11.9 Z M14.3,11.9 L14.3,12.1 C14.5,12.1 14.6,12 14.7,11.9 C14.6,11.7 14.5,11.9 14.3,11.9 Z M12.9,12.3 C13.1,12.2 13.4,12.1 13.3,12 C12.8,12.4 11.9,12.3 11.2,12.2 C11.2,12.4 11.1,12.4 11.1,12.6 C11.3,12.5 11.6,12.6 11.8,12.6 C11.9,12.6 11.9,12.4 12,12.4 C12.2,12.3 12.1,12.6 12.3,12.6 C12.5,12.6 12.7,12.4 12.9,12.3 Z"></path>
                            </g>
                            <g transform="translate(5.000000, 3.000000)" fill="#F4AA2C">
                                <path d="M3.2,6.9 C3.2,7.2 2.9,7.1 2.6,7.1 C2.6,7 2.5,7 2.5,6.9 L3.2,6.9 Z"></path>
                                <path d="M2.1,7.1 C2.2,7.3 2.2,7 2.2,7 L2.2,7.3 L1.6,7.3 C1.7,7.2 1.8,7.2 1.8,7 C2,6.9 2.1,6.9 2.1,7.1 Z"></path>
                                <path d="M0.7,7.2 C0.7,6.8 1.1,7 1.4,7 L1.4,7.3 C1.2,7.2 0.8,7.3 0.7,7.2 Z"></path>
                                <path d="M6.7,1.4 C6.7,0.6 5.1,0.7 4.2,0.6 C3.8,0.6 3.4,0.7 3.4,0.4 C3.4,-1.33226763e-15 4.1,0.1 4.5,0.1 L5.3,0.1 L6.1,0.1 C7.4,-1.33226763e-15 7.8,0.8 8,1.9 C8.3,2.2 8.3,2.9 8.1,3.3 C8.2,4.1 9.3,4.1 9.1,5 C9,5.4 8.5,5.9 8.2,6.4 C7.8,7 7.5,7.9 6.8,8 C6.4,8.1 6,8 5.7,8 C5.5,8 5.4,8.2 5.1,8 C5,8 5,8.2 4.9,8.2 L4.7,8 C4.5,8 4.6,8.3 4.4,8.3 C4.3,8.2 4.3,8.1 4.4,8 C4.2,8 4.2,8.1 4,8.2 C3.9,8.2 3.9,8 3.8,8 C3.6,8 3.7,8.3 3.5,8.2 C3.5,8.1 3.4,8.1 3.4,7.9 C3.2,7.9 3.1,8 2.8,8 L1.2,8 L0.8,8 L0.2,8 C-0.4,6.3 1.4,5.8 1.7,4.5 C2,4.4 2.2,4.2 2.4,3.9 C2.2,3.7 2.3,3.5 2.1,3.2 C1.7,2.6 0.2,2.6 0.4,2 C0.5,1.5 1.6,1.7 2.1,1.6 L2.5,1.6 L3.2,1.6 L4.3,1.6 L5.2,1.6 C6.3,1.4 6.6,2.6 6,3.3 C6.3,3.4 6.4,3.1 6.6,3.1 C6.3,2.6 6.6,2.3 6.8,1.9 C6.8,1.8 6.8,1.5 6.7,1.4 Z M1.1,1.9 C1,1.8 1,2 0.9,2 C1.3,2.3 2,2.4 2.7,2.5 L3.3,2.5 C3.7,2.5 3.7,2.8 4.1,2.7 C4.3,2.7 4.6,2.8 4.8,2.7 C5.2,2.7 5.6,2.6 5.7,2.2 C5.5,1.9 4.9,2 4.4,2 C4.1,1.9 3.6,2 3.1,2 L2.7,2 C2.5,2 2.2,1.9 2.1,2 L1.6,2 C1.5,1.9 1.3,1.9 1.1,1.9 Z M4,3.8 C4.1,3.8 4.2,3.7 4.3,3.7 C4.3,3.5 4.3,3.3 4.2,3.2 C4.1,3.3 4.2,3.5 4.1,3.6 C3.9,3.5 3.6,3.5 3.5,3.3 C3.5,3.2 3.6,3.1 3.5,3.1 C2.9,3 2.5,2.6 1.8,2.8 C2.2,3 2.6,3.2 2.9,3.4 C2.9,3.6 2.7,3.8 2.7,3.9 C2.9,3.9 3.1,4 3.3,3.9 C3.5,3.9 3.9,3.9 4,3.8 Z M4.8,0.2 L4.4,0.2 C4.3,0.2 4,0.1 4,0.2 C3.9,0.2 3.7,0.2 3.7,0.3 C3.7,0.4 3.8,0.4 3.9,0.4 C4,0.5 4.2,0.4 4.3,0.4 C5,0.5 5.9,0.3 6.4,0.5 C7.1,0.7 7.1,1.6 6.9,2.3 C7.1,2.3 7.4,2.2 7.3,2.5 C7.5,2.4 7.7,2.3 7.9,2.3 C7.9,0.9 7.4,-0.1 5.9,0.1 C5.6,0.2 5.1,0.2 4.8,0.2 Z M6.9,2.7 C6.9,3.3 8.2,3.3 8,2.7 C7.7,3 7.1,2.8 6.9,2.7 Z M3.7,3.1 L4.1,3.1 C4.2,2.8 3.6,2.7 3.7,3.1 Z M8.2,5.1 C8.2,4.8 8.6,4.9 8.7,4.6 C8.4,4.5 8.3,4.8 8,4.7 C8,4.6 7.9,4.6 7.9,4.5 C8,4.5 8.3,4.6 8.3,4.4 C8,4.3 7.7,4.5 7.5,4.6 C7.6,4.3 7.2,4.4 7.2,4.1 C7.3,3.8 7.3,3.4 7.4,3.3 L7,3.3 C7,4 6.5,4.2 6.4,4.6 C6.2,4.6 6.3,4.4 6.2,4.5 C6.3,4.9 6.6,5 7,5 C7.1,5.1 7.4,5 7.6,5 C7.7,5.1 8.1,5.2 8.2,5.1 Z M7.8,3.5 C7.8,3.4 7.7,3.3 7.7,3.3 C7.5,3.4 7.7,3.4 7.8,3.5 C7.6,3.7 7.5,3.7 7.5,3.9 C7.5,4 7.8,3.9 7.9,3.9 C7.8,3.8 7.9,3.6 7.8,3.5 Z M6.1,3.8 L5.9,3.8 C5.9,4 5.7,4 5.8,4.2 C5.8,3.9 6.1,4 6.1,3.8 Z M2,4.8 C2.2,4.7 2.5,4.5 2.4,4.3 C2.3,4.4 2.1,4.5 2,4.8 Z M3.6,5.1 C3.9,4.9 3.3,4.9 3.4,4.6 C3.5,4.5 3.8,4.5 4,4.4 C3.3,4.1 2.6,4.6 2.3,5 C2.5,5 2.6,5.1 2.9,5.1 C3.1,5.2 3.5,5.2 3.6,5.1 Z M5,4.5 C5,4.7 5.2,4.8 5.2,5 C5.3,4.9 5.5,4.9 5.4,4.6 C5.2,4.7 5.2,4.5 5,4.5 Z M4.2,4.6 L4.2,4.8 C4.4,4.9 4.7,4.8 4.6,5.1 C4.5,5.1 4.3,5 4.3,5.2 C4.4,5.3 4.6,5.1 4.8,5.1 C4.6,4.9 4.4,4.7 4.2,4.6 Z M1.9,5.2 L1.9,5.5 L2.1,5.5 L2.1,5.3 C2.1,5.3 2,5.3 1.9,5.2 Z M2.1,6 C2.3,6 2.4,6.1 2.5,6.3 C2.8,5.7 3.7,6.2 4.4,6.1 C4.4,5.8 4.8,5.5 4.6,5.3 C4.6,5.4 4.5,5.5 4.4,5.5 C4.3,5.5 4.3,5.4 4.2,5.3 C4.2,5.6 4,5.6 3.8,5.8 C3.7,5.7 3.5,5.7 3.5,5.6 C3.3,5.6 3.2,5.8 3,5.8 C2.9,5.8 2.7,5.7 2.6,5.7 C2.5,5.7 2.5,5.9 2.4,5.9 C2.3,5.7 2.2,5.6 1.9,5.6 C1.9,5.5 1.5,5.5 1.5,5.6 C1.4,5.6 1.1,5.6 1.1,5.8 C1.1,5.9 1.4,5.9 1.3,6 L1.5,6 C1.7,6 1.9,6 2.1,6 Z M6.5,6.4 C6.9,6.3 7.2,5.9 7.3,5.6 C7.1,5.8 6.9,5.9 6.7,6.1 L6.1,6.7 C6,6.7 5.9,6.8 6,6.9 L6.4,6.9 C6.6,6.9 6.8,7 6.9,6.9 C7.2,6.4 7.6,6.2 7.8,5.6 C7.4,5.8 7.2,6.9 6.5,6.4 C6.5,6.5 6.5,6.5 6.5,6.4 Z M6.4,6 C6,6.2 5.7,6.5 5.6,6.9 C6.2,6.8 6.2,6.3 6.4,6 Z M5.5,6.1 C5.4,6.1 5.6,6.2 5.5,6.3 C5.4,6.4 5.3,6.3 5.3,6.5 C5.5,6.5 5.8,6.3 5.7,6.1 C5.7,6.2 5.6,6.1 5.5,6.1 Z M4.8,6.4 C4.4,6.2 4.1,6.7 3.6,6.7 C3.6,6.6 3.5,6.6 3.5,6.5 C3.5,6.4 3.8,6.5 3.8,6.4 C3.6,6.2 3.5,6.7 3.3,6.6 C3.1,6.6 3.1,6.4 2.9,6.3 C2.6,6.3 2.7,6.6 2.5,6.6 C2.3,6.6 2.2,6.3 1.9,6.3 L1.7,6.4 C1.5,6.4 1.5,6.1 1.2,6.2 C0.8,6.2 0.3,6.8 0.5,7.3 L0.3,7.3 L0.3,7.7 L1,7.7 L3,7.7 L5.5,7.7 C6,7.7 6.6,7.8 7,7.7 C7.1,7.7 7.1,7.4 7,7.3 L6.6,7.3 L6,7.3 C5.6,7.3 5.5,7.1 5.3,6.9 C5.2,7.1 5,6.8 4.8,6.8 C4.7,7.1 5,6.9 5,7.1 C5,7.2 4.9,7.2 4.8,7.2 C4.8,6.9 4.6,6.9 4.4,6.8 C4.4,7 4.7,6.9 4.6,7.1 C4.4,7.3 3.5,7.3 3.3,7 C3.6,7 4,7.1 4.2,7 C4.2,6.8 4.3,6.6 4.5,6.6 C4.7,6.5 4.7,6.5 4.8,6.4 C4.8,6.6 4.8,6.7 4.9,6.7 C4.8,6.6 4.8,6.4 4.8,6.4 Z"></path>
                            </g>
                            <g transform="translate(15.000000, 2.000000)" fill="#F4AA2C">
                                <path d="M5.7,5.6 C5.5,5.3 5.3,5 5.2,4.6 C5.3,4.5 5.5,4.4 5.6,4.3 C5.6,4.5 6.4,4.8 6.4,5 C6.3,5.3 5.9,5.4 5.7,5.6 Z M5.3,4.6 C5.3,4.8 5.4,5 5.7,5 C5.7,4.7 5.5,4.6 5.3,4.6 Z"></path>
                                <path d="M7,3.9 C6.9,4.2 6.8,4.5 6.6,4.7 C6.4,4.7 6.4,4.5 6.2,4.5 C6.2,4.4 6.3,4.4 6.4,4.3 C6.4,4.2 6.3,4.1 6.2,4.1 C6.1,4.2 6.2,4.3 6.3,4.3 C6.1,4.7 6,4.3 5.8,4.2 C5.9,4.1 5.9,3.9 6,3.7 C6.3,3.7 6.6,3.8 7,3.9 Z"></path>
                                <path d="M4.4,4.9 C4.6,4.9 4.6,4.8 4.8,4.8 C4.9,5.2 5.1,5.4 5.2,5.8 C5,5.9 4.8,6 4.5,6 L4.5,6 L4.5,5.3 C4.4,5.3 4.4,5.1 4.4,4.9 Z"></path>
                                <path d="M5.1,0.7 C5.4,0.4 6.3,0.6 6.5,0.1 C7.2,0.1 8.1,1.77635684e-15 8.7,0.2 C8.8,0.3 8.8,0.6 9,0.5 C9.2,0.6 9.6,0.5 9.9,0.5 C10.2,0.5 10.4,0.6 10.6,0.5 C10.6,1.3 10,1.4 9.9,2 C9.5,2 9.2,2.1 9.5,2.4 C9.6,2.5 9.8,2.4 9.9,2.4 C10,2.7 10.1,3 10.1,3.4 L10.1,4.2 C10.2,5.1 9.8,5.7 9.9,6.5 C10,6.9 10.3,7.4 10.4,8 C10.5,8.4 10.5,9.1 10.3,9.3 L9.8,9.3 C9.7,9.2 9.3,9.2 9.1,9.3 C8.5,9.7 7.6,9 6.7,9.4 C6.6,9.4 6.6,9.3 6.6,9.2 C6.4,9.2 6.4,9.4 6.3,9.5 C6.2,9.4 6.1,9.3 6.1,9.1 C5.9,9.1 5.9,9.3 5.7,9.4 C5.5,9.4 5.6,9.2 5.5,9.2 C5.3,9.2 5.2,9.4 5.1,9.5 C5,9.5 5,9.3 4.9,9.2 C4.7,9.2 4.7,9.4 4.4,9.4 C4.3,9.4 4.3,9.3 4.3,9.2 C3.9,9.5 3.3,9 3,9.3 C2.3,8.2 1.6,7.1 0.9,5.9 C1.3,4.9 1.5,3.8 1.9,2.8 L2.5,2.8 C2.6,2.7 2.5,2.3 2.5,2.1 L2.5,0.8 C2.9,0.7 2.6,1.8 2.7,2.1 C2.6,2.2 2.6,2.5 2.7,2.6 L2.7,3 L2.9,3 C3.1,2.8 2.9,2.2 3,1.9 L3,1.2 L3,0.8 C3.4,0.8 3.1,1.5 3.2,1.8 C3.2,2.1 3.1,2.5 3.2,2.8 L4,2.8 L4,3 C4,3 4.1,2.9 4.2,3 C4.2,2.2 4.6,1.9 5.1,1.6 C5,1.4 4.8,1.3 4.8,1.1 C5.1,1 5.1,0.8 5.1,0.7 Z M7.6,0.6 C7.9,0.5 8.3,0.5 8.5,0.3 C8,0.2 7.2,0.2 6.7,0.3 C6.6,0.8 5.9,0.7 5.5,0.9 C5.5,1.1 5.5,1.2 5.6,1.3 C5.8,1.3 6.1,1.2 6.3,1.3 C6.4,1 6.6,0.7 6.9,0.6 C6.9,0.8 6.8,0.9 6.9,1.1 L6.9,1.1 C7.1,1.2 7.6,1.1 7.9,1.1 C8.4,1.2 8.9,1.3 9.5,1.2 C9.5,1.3 9.5,1.4 9.7,1.4 C10.1,1.3 10.4,1.1 10.4,0.7 L10.4,0.7 C10,0.6 9.4,0.7 8.9,0.7 C8.4,0.7 7.7,0.8 7.6,0.6 Z M8.3,2.6 C8.4,2.6 8.6,2.5 8.8,2.6 L8.8,2 C8.6,2 8.5,2.1 8.3,2 C8.3,1.8 8.2,1.7 8.2,1.5 C7.9,1.6 7.5,1.5 7.3,1.7 L7.3,2.1 C6.9,2.1 6.6,2.2 6.1,2.2 L6.1,2 L5.4,2 C5.6,3.3 4.9,4 3.9,4.2 C3.8,4.3 3.8,4.7 3.9,4.8 L3.9,5 L4,5 L4,5.9 L4,6.1 L3.7,6.1 L3.7,6.4 L3.7,6.6 C3.6,6.7 3.6,7 3.7,7.1 C3.8,7.2 3.9,7.1 4,7.2 C4,7.3 3.9,7.6 4,7.6 L4.5,7.6 C4.5,7.4 4.6,7.3 4.5,7.1 C4.9,7.1 5.3,6.9 5.7,6.9 C5.7,7 5.8,7.1 5.9,7.3 C6.1,7.2 6.3,7.1 6.5,7 C6.5,6.8 6.3,6.7 6.3,6.5 C6.6,6.3 6.9,6.2 7.2,5.9 C7.3,6 7.4,6.1 7.6,6.1 C7.7,5.9 7.9,5.8 8,5.6 C7.5,5.3 7.8,5.2 8,4.8 C8.1,4.5 8.1,4.3 8.3,4.2 C8.5,4.2 8.6,4.3 8.7,4.3 C8.8,4.1 8.8,4 8.8,3.8 C8.7,3.7 8.4,3.8 8.3,3.6 C8.4,3.5 8.3,3.4 8.3,3.2 C8.3,3.1 8.2,2.8 8.3,2.6 Z M8.7,2.9 L8.7,3.1 C9,3 9.5,3.1 9.4,2.7 C9.2,2.8 9.1,2.9 8.7,2.9 Z M3.7,3.2 C3.3,3.6 2.8,3.3 2.4,3.1 C2.3,3.8 3.1,4.3 3.7,4 C3.8,3.8 3.8,3.1 3.7,3.2 Z M2.5,4.5 C2.7,4.7 2.8,4.9 3.2,4.8 C3.4,4.7 3.4,4.4 3.5,4.2 C2.8,4.3 2.4,4 2.1,3.6 C2.1,3.7 2,3.8 1.9,3.9 C2.1,4.1 2.4,4.3 2.5,4.5 Z M2.7,5.1 C2.7,5.2 3,5.2 3.1,5.1 C3.1,5 3.1,4.9 3,4.9 C2.9,5 2.6,4.9 2.7,5.1 Z M2.6,5.5 C2.7,5.4 2.7,4.9 2.6,4.8 C2.4,4.6 2.1,4.2 2,4.3 L2,4.9 C1.9,5.1 1.9,5.6 2,5.8 C2.2,5.9 2.4,6.2 2.6,6.3 L2.6,5.5 Z M2.7,5.5 C2.7,5.7 2.7,5.7 2.9,5.7 C3,5.6 3.1,5.6 3,5.5 C2.9,5.5 2.7,5.4 2.7,5.5 Z M9.5,3.7 C9.3,3.8 9.2,3.9 9.1,4.2 C9.4,4.3 9.5,3.9 9.5,3.7 Z M9.1,4.5 C8.9,4.6 8.7,4.6 8.7,4.8 C8.9,4.8 9.1,4.7 9.1,4.5 Z M9.3,5 C9.4,4.9 9.6,4.9 9.5,4.7 C8.9,5 8.5,5.4 8.2,5.9 C8.8,5.9 8.8,5.2 9.2,5.1 C9.3,5.1 9.2,5.2 9.2,5.3 C9.2,5.4 9.1,5.4 9.1,5.5 C9.2,5.5 9.4,5.5 9.4,5.4 L9.4,5.2 C9.3,5.2 9.3,5.1 9.3,5.2 C9.4,5.1 9.3,5.1 9.3,5 Z M9.2,5.7 C9.3,5.7 9.3,5.8 9.3,5.9 C9.1,6.1 9,6.3 8.7,6.4 L8.7,6.7 C8.8,6.6 9.1,6.6 9.4,6.6 C9.5,6.3 9.5,5.8 9.4,5.6 C9.3,5.5 9.2,5.6 9.2,5.7 Z M8,6.1 C8,6.2 7.8,6.1 7.8,6.2 C7.9,6.4 8,6.5 8.3,6.5 C8.3,6.4 8.3,6.2 8.5,6.3 C8.4,6.4 8.4,6.6 8.6,6.6 C8.8,6.3 9.3,6.1 9.2,5.6 C9.1,6 8.5,6.2 8.1,6.2 C8.1,6.1 8.4,5.9 8.1,5.9 C8,6 8,6 8,6.1 Z M3.1,5.7 C3.3,5.7 3.3,5.5 3.5,5.5 C3.5,5.4 3.5,5.2 3.3,5.2 C3.3,5.5 3.1,5.5 3.1,5.7 Z M2.7,6.2 C2.8,6.5 2.5,6.5 2.4,6.7 C2.7,6.7 2.8,6.5 2.9,6.4 C2.9,6.3 2.9,6.2 2.7,6.2 Z M6.5,7.3 C6.7,7.3 6.9,7.1 6.8,6.9 C6.8,7.2 6.5,7.1 6.5,7.3 Z M9.1,8.1 L10.1,8.1 C10,7.7 9.7,7.4 9.6,7 C9.2,7 9.2,7.8 8.8,7.6 C8.9,7.5 9.1,7.4 9,7.1 C8.7,7 8.6,7.3 8.5,7.4 C8.4,7.3 8.4,7.2 8.3,7.2 C8.2,7.2 8.2,7.3 8.1,7.3 C8,7.2 8.1,7.1 8,7 C7.7,7.1 7.7,7.4 7.9,7.6 C7.9,7.3 8.3,7.3 8.4,7.5 C8.4,7.7 7.9,7.8 7.6,7.8 C7.5,7.8 7.5,7.8 7.5,7.7 C7.5,7.6 7.7,7.6 7.8,7.6 C7.8,7.5 7.8,7.4 7.6,7.4 C7.3,7.5 7.3,7.8 7,7.9 C7,7.7 7.1,7.6 7,7.5 L6.8,7.5 C6.8,7.9 7,8.2 7.3,7.9 L7.5,7.9 C7.6,8.1 7.8,8 8,8 C8.3,8.1 8.7,8.1 9.1,8.1 Z M2.3,7.3 C2.5,7.3 2.5,7.5 2.5,7.7 C2.7,7.7 2.7,7.6 2.7,7.5 C2.5,7.4 2.5,7.1 2.3,7.3 Z M3.3,7.5 L3.3,7.3 L3,7.3 L3,7.4 C3.1,7.6 3.2,7.5 3.3,7.5 Z M5.9,8.1 C6,8.1 6,8.2 6.1,8.1 C6,7.9 6.2,7.9 6.3,7.8 C6.2,7.8 6.3,7.7 6.2,7.7 C6,7.8 5.9,7.9 5.9,8.1 Z M2.7,7.8 C2.8,7.8 2.8,7.9 2.8,8 L3,8 C3,7.9 2.8,7.7 2.7,7.8 Z"></path>
                                <path d="M7.3,2.7 C7.3,3 7.2,3.2 7.2,3.6 C6.8,3.5 6.4,3.4 6,3.4 C6,3.2 6,3 6.1,2.8 C6.5,2.7 6.8,2.6 7.3,2.7 Z M6.1,3 C6.2,3.1 6.8,3.1 6.8,2.9 C6.6,3 6.2,2.8 6.1,3 Z"></path>
                            </g>
                            <path d="M29.4,1 L30.3,0.1 L0.3,0.1 L1.2,1 C1.2,1 3.5,3.3 3.5,5.4 L3.5,21.4 L3.5,21.7 C3.5,22.6 3.5,23.7 4.3,24.5 C5,25.2 6,25.5 7.6,25.5 L7.6,25.5 C9.7,25.6 12.1,25.6 12.4,25.7 C13.3,26 14.4,26.5 14.8,27.2 L15.4,28 L15.9,27.2 C16.3,26.5 17.4,26 18.3,25.7 C18.6,25.6 21,25.5 23.1,25.5 C24.6,25.5 25.7,25.2 26.4,24.5 C27.2,23.7 27.2,22.6 27.2,21.7 L27.2,21.4 L27.2,5.4 C27.1,3.3 29.3,1 29.4,1 Z M23,24.4 C21.6,24.4 18.3,24.5 17.9,24.7 C17.3,24.9 16,25.3 15.2,26.2 C14.4,25.4 13.1,24.9 12.5,24.7 C12.1,24.6 8.8,24.5 7.4,24.4 C6.5,24.4 5.8,24.3 5.3,24 L15.1,9.6 L24.7,24.1 C24.3,24.3 23.7,24.4 23,24.4 Z M26,5.4 L26,21.4 L26,21.7 C26,22.4 26,23.1 25.6,23.6 L15.2,7.7 L4.7,23.2 C4.5,22.7 4.5,22.2 4.5,21.6 L4.5,21.3 L4.5,5.3 C4.5,3.7 3.5,2 2.7,1.1 L27.8,1.1 C27.1,2.1 26,3.7 26,5.4 Z" fill="#F4AA2C" fill-rule="nonzero"></path>
                        </g>
                    </g>
                    <path d="M8.2,1.2 C8.5,1.3 8.8,1.5 9.3,1.4 C9.5,1.4 9.7,1.4 9.8,1.6 C9.8,1.7 9.7,1.7 9.7,1.8 C8.9,1.6 8,1.5 7.4,1.1 C7.3,1 6.8,1 6.7,1.1 C6.8,0.6 7.7,1.2 8.2,1.2 Z" id="Shape" fill="#F4AA2C"></path>
                    <path d="M5.2,1.1 C5.7,1 6,1.4 6.6,1.3 L6.8,1.3 C7.1,1.9 8.3,1.9 8.5,2.5 C8.1,2.4 7.8,2.3 7.4,2.1 C7.1,1.9 6.8,1.6 6.5,1.5 L6.1,1.5 C5.8,1.6 5.4,1.4 5.2,1.1 Z" id="Shape" fill="#F4AA2C"></path>
                </g>
                <g id="Group" transform="translate(10.000000, 10.000000)" fill-rule="nonzero" fill="#F5AB29">
                    <g id="Shape">
                        <path d="M12.5,58.5 L12.5,58.5 L11.2,57.6 L11.3,57.5 L11.4,57.6 C11.5,57.7 11.7,57.7 11.9,57.7 C12,57.7 12.1,57.6 12.3,57.4 L13.4,55.9 C13.7,55.5 13.9,55.3 14.2,55.1 C14.4,55 14.7,54.9 15,54.9 C15.3,54.9 15.7,55.1 16,55.4 C16.4,55.7 16.6,56 16.7,56.3 C16.8,56.6 16.8,56.9 16.7,57.2 C16.6,57.4 16.4,57.7 16.1,58.2 L15,59.6 C14.8,59.8 14.7,60 14.8,60.1 C14.8,60.2 14.9,60.3 15,60.4 L15.1,60.5 L15,60.6 L13.4,59.4 L13.5,59.3 L13.6,59.4 C13.7,59.5 13.9,59.6 14,59.5 C14.1,59.5 14.2,59.4 14.4,59.2 L15.6,57.6 C15.7,57.5 15.8,57.3 15.9,57.1 C16,56.9 16.1,56.7 16.1,56.6 C16.1,56.4 16.1,56.3 16,56.1 C15.9,55.9 15.8,55.8 15.6,55.6 C15.4,55.4 15.1,55.3 14.8,55.3 C14.5,55.3 14.3,55.3 14.1,55.4 C13.9,55.5 13.7,55.8 13.4,56.1 L12.3,57.6 C12.1,57.8 12,58 12,58.1 C12,58.2 12.1,58.4 12.2,58.5 L12.5,58.5 Z"></path>
                        <path d="M10,56.5 L9.2,55.6 L10,51.3 L8,53 C7.8,53.2 7.7,53.3 7.7,53.4 C7.7,53.5 7.7,53.7 7.8,53.8 L7.9,53.9 L7.8,54 L6.8,52.8 L6.9,52.7 L7,52.8 C7.1,52.9 7.3,53 7.4,53 C7.5,53 7.6,52.9 7.8,52.7 L10.7,50.2 L10.8,50.3 L10,55 L12.1,53.2 C12.3,53 12.4,52.9 12.4,52.8 C12.4,52.7 12.4,52.5 12.3,52.4 L12.2,52.3 L12.3,52.2 L13.3,53.4 L13.2,53.5 L13.1,53.4 C13,53.3 12.8,53.2 12.7,53.2 C12.6,53.2 12.5,53.3 12.3,53.5 L9.9,55.6 L9.9,56 C9.9,56.1 9.9,56.2 10,56.3 L10,56.5 L10,56.5 Z"></path>
                        <path d="M8.6,47.3 L8.7,47.2 L9.7,48.9 L9.6,49 L9.5,48.9 C9.4,48.7 9.3,48.7 9.1,48.6 C9,48.6 8.9,48.7 8.6,48.8 L6.1,50.3 C5.9,50.4 5.8,50.5 5.7,50.6 C5.7,50.6 5.6,50.7 5.6,50.8 C5.6,50.9 5.6,51 5.7,51.1 L5.8,51.2 L5.7,51.3 L4.7,49.6 L4.8,49.5 L4.9,49.6 C5,49.8 5.1,49.8 5.3,49.9 C5.4,49.9 5.6,49.8 5.8,49.7 L8.3,48.2 C8.5,48.1 8.6,48 8.7,47.9 C8.7,47.9 8.8,47.8 8.7,47.7 C8.7,47.6 8.7,47.5 8.6,47.4 L8.6,47.3 Z"></path>
                        <path d="M2,43.8 L2.1,43.8 C2.2,43.9 2.3,44 2.4,44.1 C2.5,44.2 2.7,44.2 3,44.2 L7.2,44.2 L7.2,44.3 L4.2,47.4 C4,47.6 4,47.7 3.9,47.7 C3.9,47.8 3.8,47.9 3.8,48 C3.8,48.1 3.8,48.2 3.9,48.3 L3.8,48.3 L3.1,46.6 L3.2,46.6 C3.3,46.8 3.4,46.9 3.5,46.9 L3.7,46.9 C3.8,46.9 3.9,46.7 4.1,46.6 L6.1,44.5 L3.3,44.5 C3,44.5 2.8,44.5 2.7,44.6 C2.6,44.6 2.6,44.7 2.6,44.8 L2.6,45.2 C2.6,45.2 2.6,45.2 2.6,45.3 L2.5,45.3 L2,43.8 Z"></path>
                        <path d="M1.5,40.7 L3.3,40.3 L3.1,39.3 C3,39 3,38.9 2.9,38.8 C2.8,38.7 2.6,38.7 2.3,38.7 L2.3,38.6 L3.9,38.3 L3.9,38.4 C3.7,38.5 3.6,38.5 3.5,38.6 C3.4,38.7 3.4,38.7 3.4,38.8 L3.4,39.2 L3.6,40.2 L5.1,39.9 C5.3,39.9 5.4,39.8 5.5,39.8 L5.6,39.7 L5.6,39.4 L5.4,38.6 C5.3,38.3 5.3,38.2 5.2,38.1 C5.1,38 5,37.9 4.9,37.8 C4.7,37.7 4.5,37.6 4.2,37.5 L4.2,37.4 L5.4,37.6 L6.1,41 L6,41 L6,40.8 C6,40.7 5.9,40.6 5.9,40.5 C5.9,40.4 5.8,40.4 5.7,40.4 C5.6,40.4 5.5,40.4 5.3,40.5 L2.4,41.1 C2.1,41.2 1.9,41.2 1.9,41.3 C1.8,41.4 1.8,41.5 1.9,41.7 L1.9,41.9 L1.8,41.9 L1.1,38.5 L2.1,38.2 L2.1,38.3 C1.9,38.4 1.7,38.5 1.6,38.6 C1.5,38.7 1.5,38.8 1.5,38.9 L1.5,39.4 L1.5,40.7 Z"></path>
                        <path d="M4.9,31.8 L4.9,33 L2.8,34.6 L2.8,34.9 L2.8,35 L2.8,35.1 L4.1,35.1 C4.4,35.1 4.6,35.1 4.6,35 C4.7,34.9 4.7,34.8 4.7,34.6 L4.7,34.4 L4.8,34.4 L4.8,36.3 L4.7,36.3 L4.7,36.1 C4.7,35.9 4.6,35.8 4.5,35.7 C4.4,35.7 4.3,35.6 4,35.6 L1.1,35.7 C0.8,35.7 0.6,35.7 0.6,35.8 C0.5,35.9 0.5,36 0.5,36.2 L0.5,36.4 L0.4,36.4 L0.4,34.7 C0.4,34.2 0.4,33.9 0.5,33.6 C0.6,33.4 0.7,33.2 0.9,33 C1.1,32.8 1.3,32.8 1.6,32.7 C1.9,32.7 2.1,32.8 2.3,33 C2.5,33.2 2.7,33.5 2.8,33.8 L4.1,32.8 C4.4,32.6 4.6,32.4 4.7,32.2 C4.8,32 4.9,31.8 4.9,31.6 L4.9,31.8 Z M2.6,35.1 L2.6,35 L2.6,34.9 C2.6,34.5 2.5,34.1 2.3,33.9 C2.1,33.7 1.9,33.6 1.6,33.6 C1.3,33.6 1.1,33.7 0.9,33.9 C0.7,34.1 0.6,34.3 0.6,34.6 C0.6,34.7 0.6,34.9 0.7,35.1 L2.6,35.1 Z"></path>
                        <path d="M0.7,27.3 L2.3,27.5 L2.3,27.6 C2,27.6 1.7,27.6 1.6,27.7 C1.4,27.8 1.2,27.9 1.1,28.1 C1,28.3 0.9,28.5 0.9,28.7 C0.9,28.9 0.9,29.1 1,29.3 C1.1,29.5 1.3,29.6 1.4,29.6 C1.5,29.6 1.7,29.6 1.8,29.5 C2,29.4 2.3,29.1 2.6,28.6 C2.9,28.2 3.1,28 3.3,27.8 C3.4,27.7 3.6,27.6 3.8,27.5 C4,27.4 4.2,27.4 4.3,27.5 C4.6,27.6 4.9,27.7 5.1,28 C5.3,28.3 5.4,28.7 5.3,29.1 C5.3,29.2 5.3,29.4 5.2,29.5 C5.2,29.6 5.1,29.7 5,29.9 C4.9,30.1 4.8,30.2 4.8,30.3 L4.8,30.4 C4.8,30.4 4.9,30.5 5,30.5 L5,30.6 L3.5,30.4 L3.5,30.3 C3.8,30.3 4.1,30.3 4.3,30.2 C4.5,30.1 4.6,30 4.8,29.8 L5.1,29.2 C5.1,28.9 5.1,28.7 5,28.5 C4.9,28.3 4.7,28.2 4.5,28.2 L4.2,28.2 C4.1,28.2 4,28.3 3.8,28.4 C3.7,28.5 3.5,28.7 3.3,29 C3,29.4 2.8,29.6 2.7,29.7 C2.5,29.8 2.4,29.9 2.2,30 C2,30.1 1.9,30.1 1.7,30 C1.4,30 1.1,29.8 0.9,29.5 C0.7,29.2 0.6,28.9 0.7,28.5 C0.7,28.3 0.8,28 1,27.8 C1.1,27.7 1.1,27.6 1.1,27.6 L1.1,27.5 C1.1,27.5 1,27.4 0.9,27.4 L0.7,27.3 Z"></path>
                        <path d="M6.1,24.5 L6.2,24.5 L5.6,26.4 L5.5,26.4 L5.5,26.2 C5.6,26 5.5,25.9 5.5,25.8 C5.4,25.7 5.3,25.7 5,25.6 L2.2,24.8 C2,24.7 1.8,24.7 1.8,24.7 C1.7,24.7 1.7,24.7 1.6,24.8 C1.5,24.9 1.5,25 1.4,25.1 L1.4,25.3 L1.3,25.3 L1.9,23.4 L2,23.4 L2,23.6 C1.9,23.8 2,23.9 2,24 C2.1,24.1 2.2,24.2 2.5,24.2 L5.3,25 C5.5,25.1 5.7,25.1 5.7,25.1 C5.8,25.1 5.8,25.1 5.9,25 C6,24.9 6,24.8 6.1,24.7 L6.1,24.5 Z"></path>
                        <path d="M3.9,18.1 L4.9,18.5 L4.8,18.6 C4.6,18.5 4.5,18.5 4.4,18.5 C4.3,18.5 4.1,18.6 4,18.6 C3.9,18.7 3.8,18.8 3.7,19 L3.4,19.6 L6.6,21.1 C6.9,21.2 7,21.3 7.1,21.2 C7.2,21.2 7.3,21.1 7.4,20.9 L7.5,20.8 L7.6,20.9 L6.8,22.6 L6.7,22.5 L6.8,22.4 C6.9,22.2 6.9,22.1 6.8,22 C6.8,21.9 6.6,21.8 6.4,21.7 L3.2,20.2 L3,20.7 C2.9,20.9 2.9,21 2.9,21.1 C2.9,21.2 2.9,21.3 3,21.5 C3.1,21.6 3.2,21.7 3.4,21.8 L3.3,22 L2.4,21.5 L3.9,18.1 Z"></path>
                        <path d="M6.6,13.8 L7.5,12.5 L7.6,12.6 L7.5,12.7 C7.5,12.7 7.4,12.8 7.4,13 L7.4,13.4 C7.4,13.5 7.5,13.7 7.6,14 L8.4,15.9 L9.3,16.6 C9.5,16.8 9.7,16.8 9.8,16.8 C9.9,16.8 10,16.7 10.2,16.6 L10.3,16.5 L10.4,16.6 L9.3,18.2 L9.2,18.1 L9.3,18 C9.4,17.8 9.4,17.7 9.4,17.6 C9.4,17.5 9.3,17.4 9,17.3 L8.1,16.7 L5.8,16.6 L5.3,16.6 C5.2,16.6 5.1,16.7 4.9,16.7 L4.8,16.8 L4.7,16.7 L5.8,15.1 L5.9,15.2 L5.9,15 C5.8,15.1 5.8,15.2 5.8,15.3 C5.8,15.4 5.8,15.5 5.9,15.5 C6,15.5 6.1,15.6 6.4,15.6 L8.1,15.7 L7.5,14.2 C7.4,14 7.3,13.8 7.2,13.8 C7.1,13.8 7.1,13.7 7,13.7 L6.8,13.7 C6.7,13.7 6.7,13.8 6.6,13.9 L6.6,13.8 Z"></path>
                        <path d="M20.7,2.6 C21.2,2.4 21.8,2.4 22.4,2.7 C23,3 23.4,3.4 23.6,4 C23.9,4.6 23.9,5.3 23.6,5.8 C23.4,6.4 23,6.8 22.4,7 C21.8,7.2 21.2,7.2 20.7,7 C20.1,6.7 19.7,6.3 19.5,5.6 C19.2,4.9 19.2,4.3 19.5,3.7 C19.7,3.2 20.1,2.8 20.7,2.6 Z M20.7,2.8 C20.3,3 20.1,3.2 20,3.6 C19.9,4.1 19.9,4.6 20.2,5.3 C20.5,6 20.8,6.5 21.3,6.7 C21.6,6.9 22,6.9 22.4,6.8 C22.8,6.6 23.1,6.4 23.2,5.9 C23.3,5.5 23.3,4.9 23,4.3 C22.7,3.6 22.4,3.1 21.9,2.9 C21.5,2.7 21.1,2.7 20.7,2.8 Z"></path>
                        <path d="M26,1.2 L26.4,3 L27.2,2.8 C27.4,2.8 27.5,2.7 27.6,2.6 C27.7,2.5 27.7,2.3 27.7,2.1 L27.8,2.1 L28.1,3.6 L28,3.6 C28,3.4 27.9,3.3 27.9,3.2 C27.8,3.1 27.8,3.1 27.7,3.1 L27.4,3.1 L26.6,3.3 L26.9,4.7 C26.9,4.9 27,5.1 27,5.1 C27,5.2 27.1,5.2 27.2,5.2 L27.5,5.2 L27.7,5.2 L27.7,5.3 L25.8,5.7 L25.8,5.6 L26,5.6 C26.2,5.6 26.3,5.5 26.4,5.4 L26.4,4.9 L25.8,2 C25.8,1.8 25.7,1.6 25.7,1.6 C25.7,1.5 25.6,1.5 25.5,1.5 L25.2,1.5 L25,1.5 L25,1.4 L28.3,0.7 L28.5,1.7 L28.4,1.7 C28.3,1.5 28.2,1.4 28.1,1.3 C28,1.2 27.9,1.2 27.8,1.1 L27.3,1.1 L26,1.2 Z"></path>
                        <path d="M36.9,0.3 L36.9,1.4 L36.8,1.4 C36.8,1.2 36.8,1.1 36.7,1 C36.6,0.9 36.6,0.8 36.4,0.7 C36.3,0.6 36.1,0.6 36,0.6 L35.4,0.6 L35.1,4 C35.1,4.3 35.1,4.5 35.2,4.5 C35.3,4.6 35.4,4.7 35.6,4.7 L35.8,4.7 L35.8,4.8 L33.9,4.7 L33.9,4.6 L34.1,4.6 C34.3,4.6 34.4,4.6 34.5,4.5 C34.6,4.4 34.6,4.3 34.6,4 L34.8,0.5 L34.3,0.5 L33.8,0.5 C33.7,0.5 33.6,0.6 33.5,0.7 C33.4,0.8 33.4,1 33.3,1.2 L33.2,1.2 L33.3,0.1 L36.9,0.3 Z"></path>
                        <path d="M39.6,2.9 L41.6,3.4 L41.9,2.1 C42,1.9 42,1.7 42,1.6 C42,1.5 42,1.5 41.9,1.4 C41.8,1.3 41.7,1.3 41.6,1.2 L41.4,1.2 L41.4,1.1 L43.3,1.6 L43.3,1.7 L43.1,1.7 L42.8,1.7 C42.7,1.7 42.7,1.8 42.6,1.8 C42.6,1.9 42.5,2 42.5,2.2 L41.8,5 C41.7,5.2 41.7,5.4 41.7,5.5 C41.7,5.6 41.7,5.6 41.8,5.7 C41.9,5.8 42,5.8 42.1,5.9 L42.3,5.9 L42.3,6 L40.4,5.5 L40.4,5.4 L40.6,5.4 C40.8,5.4 40.9,5.4 41,5.3 C41.1,5.2 41.1,5.1 41.2,4.8 L41.5,3.5 L39.5,3 L39.2,4.3 C39.1,4.5 39.1,4.7 39.1,4.8 C39.1,4.9 39.1,4.9 39.2,5 C39.3,5.1 39.4,5.1 39.5,5.2 L39.7,5.2 L39.7,5.3 L37.8,5 L37.8,4.9 L38,4.9 C38.2,4.9 38.3,4.9 38.4,4.8 C38.5,4.7 38.5,4.6 38.6,4.3 L39.3,1.5 C39.4,1.3 39.4,1.1 39.4,1 C39.4,0.9 39.4,0.9 39.3,0.8 C39.2,0.7 39.1,0.7 39,0.6 L38.8,0.6 L38.8,0.5 L40.7,1 L40.7,1.1 L40.5,1.1 L40.2,1.1 C40.1,1.1 40.1,1.2 40,1.2 C40,1.3 39.9,1.4 39.9,1.6 L39.6,2.9 Z"></path>
                        <path d="M46.3,3.2 L45.5,4.8 L46.4,5.2 C46.6,5.3 46.8,5.3 46.9,5.3 C47,5.3 47.2,5.1 47.3,4.9 L47.4,5 L46.7,6.4 L46.6,6.3 C46.7,6.1 46.7,5.9 46.7,5.9 C46.7,5.8 46.7,5.7 46.6,5.6 C46.5,5.5 46.4,5.4 46.2,5.4 L45.5,5 L44.9,6.4 C44.8,6.6 44.8,6.7 44.8,6.7 L44.8,6.8 C44.8,6.8 44.9,6.9 45,6.9 L45.7,7.2 C45.9,7.3 46.1,7.4 46.2,7.4 L46.6,7.4 C46.8,7.3 47,7.2 47.3,7 L47.4,7.1 L46.5,8 L43.3,6.5 L43.4,6.4 L43.5,6.5 C43.6,6.5 43.7,6.6 43.8,6.6 C43.9,6.6 43.9,6.6 44,6.5 C44.1,6.4 44.1,6.3 44.2,6.1 L45.5,3.4 C45.6,3.1 45.7,3 45.6,2.9 C45.6,2.8 45.5,2.7 45.3,2.6 L45.2,2.5 L45.3,2.4 L48.5,3.9 L48.1,4.8 L48,4.7 C48.1,4.5 48.1,4.3 48.1,4.2 C48.1,4.1 48,4 48,3.9 C47.9,3.8 47.8,3.7 47.6,3.7 L46.3,3.2 Z"></path>
                        <path d="M58.7,16.2 L57.6,17 C57.4,17.2 57.2,17.3 57.2,17.4 C57.2,17.5 57.2,17.7 57.3,17.8 L57.4,17.9 L57.3,18 L56.2,16.4 L56.3,16.3 L56.4,16.4 C56.5,16.6 56.6,16.6 56.8,16.6 C56.9,16.6 57,16.5 57.2,16.4 L59.6,14.8 C59.8,14.6 60,14.5 60,14.4 C60,14.3 60,14.1 59.9,14 L59.8,13.9 L59.9,13.8 L60.8,15.2 C61,15.5 61.2,15.8 61.2,16.1 C61.3,16.3 61.3,16.6 61.2,16.8 C61.1,17 61,17.2 60.7,17.4 C60.4,17.6 60.1,17.7 59.7,17.6 C59.4,17.5 59.1,17.3 58.8,16.9 C58.7,16.8 58.7,16.7 58.6,16.6 C58.8,16.5 58.7,16.4 58.7,16.2 Z M58.8,16.1 C58.8,16.2 58.9,16.3 58.9,16.4 C58.9,16.5 59,16.6 59,16.6 C59.1,16.8 59.3,16.9 59.6,16.9 C59.8,16.9 60.1,16.9 60.3,16.7 C60.5,16.6 60.6,16.5 60.7,16.3 C60.8,16.1 60.8,16 60.8,15.8 C60.8,15.6 60.7,15.5 60.6,15.3 C60.5,15.2 60.4,15.1 60.3,15 L58.8,16.1 Z"></path>
                        <path d="M61.3,20.6 L62.1,22.5 L63.3,22 C63.5,21.9 63.6,21.8 63.7,21.8 C63.7,21.8 63.8,21.7 63.8,21.6 L63.8,21.3 L63.7,21.2 L63.8,21.2 L64.6,23 L64.5,23 L64.4,22.9 C64.4,22.8 64.3,22.7 64.2,22.7 C64.1,22.6 64.1,22.6 64,22.6 C63.9,22.6 63.8,22.7 63.6,22.7 L60.9,23.9 C60.7,24 60.6,24.1 60.5,24.1 C60.5,24.1 60.4,24.2 60.4,24.3 L60.4,24.6 L60.5,24.7 L60.4,24.7 L59.7,23 L59.8,23 L59.9,23.1 C60,23.3 60.1,23.4 60.2,23.4 C60.3,23.4 60.5,23.4 60.7,23.3 L62,22.7 L61.2,20.8 L59.9,21.4 C59.7,21.5 59.6,21.6 59.5,21.6 C59.5,21.6 59.4,21.7 59.4,21.8 L59.4,22.1 L59.5,22.3 L59.4,22.3 L58.6,20.5 L58.7,20.5 L58.8,20.6 C58.9,20.8 59,20.9 59.1,20.9 C59.2,20.9 59.4,20.9 59.6,20.8 L62.3,19.6 C62.5,19.5 62.6,19.4 62.7,19.4 C62.7,19.4 62.8,19.3 62.8,19.2 L62.8,18.9 L62.7,18.8 L62.8,18.8 L63.6,20.6 L63.5,20.6 L63.4,20.4 C63.4,20.3 63.3,20.2 63.2,20.2 C63.1,20 63,20 62.9,20 C62.8,20 62.7,20.1 62.5,20.1 L61.3,20.6 Z"></path>
                        <path d="M61.1,27.5 L61,27.5 L60.5,25.6 L60.6,25.6 L60.6,25.8 C60.6,26 60.7,26.1 60.9,26.2 C61,26.2 61.2,26.2 61.4,26.1 L64.2,25.4 C64.4,25.3 64.6,25.3 64.6,25.2 C64.6,25.2 64.7,25.1 64.7,25 L64.7,24.7 L64.7,24.5 L64.8,24.5 L65.3,26.4 L65.2,26.4 L65.2,26.2 C65.2,26 65.1,25.9 64.9,25.8 L64.4,25.8 L61.6,26.5 C61.4,26.6 61.2,26.6 61.2,26.7 C61.2,26.7 61.1,26.8 61.1,26.9 L61.1,27.2 L61.1,27.5 Z"></path>
                        <path d="M62.8,32.2 L62.8,32.3 L61.5,32 L61.1,28.5 L61.2,28.5 L61.2,28.7 C61.2,28.9 61.3,29 61.4,29.1 L61.9,29.1 L64.8,28.8 C65.1,28.8 65.3,28.7 65.3,28.6 C65.4,28.5 65.4,28.4 65.4,28.2 L65.4,28 L65.5,28 L65.7,30 L65.6,30 C65.6,29.8 65.5,29.6 65.5,29.5 C65.4,29.4 65.4,29.3 65.3,29.3 L64.8,29.3 L62,29.6 C61.8,29.6 61.7,29.7 61.6,29.7 L61.5,29.8 L61.5,30.3 L61.5,30.6 C61.5,30.9 61.6,31.2 61.7,31.3 C61.8,31.4 61.9,31.6 62,31.7 C62.3,32 62.5,32.1 62.8,32.2 Z"></path>
                        <path d="M61.5,35.5 L61.4,35.5 L61.5,33.6 L61.6,33.6 L61.6,33.8 C61.6,34 61.6,34.1 61.7,34.2 C61.8,34.3 61.9,34.3 62.2,34.3 L65.1,34.4 L65.6,34.4 C65.7,34.4 65.7,34.3 65.8,34.3 C65.9,34.2 65.9,34.1 65.9,34 L65.9,33.8 L66,33.8 L65.9,35.7 L65.8,35.7 L65.8,35.5 C65.8,35.3 65.8,35.2 65.7,35.1 C65.6,35 65.4,35 65.1,35 L62.2,34.9 L61.7,34.9 C61.6,34.9 61.6,35 61.5,35 C61.4,35.1 61.4,35.2 61.4,35.3 L61.5,35.5 Z"></path>
                        <path d="M63.2,38.2 L61.9,38 L61.4,38 C61.3,38.1 61.2,38.2 61.2,38.4 L61.2,38.6 L61.1,38.6 L61.4,36.7 L61.5,36.7 L61.5,36.9 C61.5,37.1 61.5,37.2 61.6,37.3 C61.7,37.4 61.8,37.4 62.1,37.5 L65,38 C65.3,38 65.5,38.1 65.5,38 C65.6,37.9 65.7,37.8 65.7,37.6 L65.7,37.4 L65.8,37.4 L65.5,39 C65.4,39.4 65.3,39.7 65.2,39.9 C65.1,40.1 64.9,40.3 64.7,40.4 C64.5,40.5 64.2,40.6 64,40.5 C63.6,40.4 63.4,40.3 63.2,40 C63,39.7 63,39.4 63,38.9 C63,38.8 63,38.7 63.1,38.6 C63.1,38.5 63.1,38.4 63.2,38.2 Z M63.4,38.3 C63.4,38.4 63.3,38.5 63.3,38.6 C63.3,38.7 63.3,38.8 63.2,38.8 C63.2,39 63.2,39.2 63.4,39.4 C63.5,39.6 63.8,39.7 64,39.8 L64.6,39.8 C64.8,39.7 64.9,39.7 65,39.5 C65.1,39.4 65.2,39.2 65.2,39 L65.2,38.6 L63.4,38.3 Z"></path>
                        <path d="M62,42.8 L60.7,42.4 C60.4,42.3 60.3,42.3 60.2,42.3 C60.1,42.3 60,42.5 59.9,42.6 L59.8,42.8 L59.7,42.8 L60.3,41 L60.4,41 L60.3,41.2 C60.2,41.4 60.2,41.5 60.3,41.7 C60.4,41.8 60.5,41.8 60.7,41.9 L63.5,42.9 C63.8,43 63.9,43 64,43 C64.1,43 64.2,42.8 64.3,42.7 L64.4,42.5 L64.5,42.5 L63.9,44.1 C63.8,44.5 63.6,44.8 63.5,45 C63.3,45.2 63.1,45.3 62.9,45.4 C62.7,45.5 62.4,45.5 62.2,45.4 C61.8,45.3 61.6,45.1 61.5,44.8 C61.4,44.5 61.4,44.1 61.5,43.7 C61.5,43.6 61.6,43.5 61.6,43.4 C61.8,43 61.9,42.9 62,42.8 Z M62.2,42.9 C62.1,43 62.1,43 62,43.1 C62,43.2 61.9,43.3 61.9,43.3 C61.8,43.5 61.8,43.7 62,44 C62.1,44.2 62.3,44.4 62.6,44.5 C62.8,44.6 63,44.6 63.2,44.6 C63.4,44.6 63.5,44.5 63.7,44.4 C63.8,44.3 63.9,44.1 64,44 C64,43.9 64.1,43.7 64.1,43.6 L62.2,42.9 Z"></path>
                        <path d="M57.9,47.1 L57.8,47 L58.7,45.3 L58.8,45.4 L58.7,45.5 C58.6,45.7 58.6,45.8 58.7,45.9 C58.7,46 58.9,46.1 59.1,46.2 L61.7,47.5 C61.9,47.6 62,47.7 62.1,47.7 C62.2,47.7 62.2,47.7 62.3,47.6 C62.4,47.5 62.5,47.5 62.5,47.4 L62.6,47.3 L62.7,47.4 L61.8,49.1 L61.8,49 L61.9,48.9 C62,48.7 62,48.6 61.9,48.5 C61.9,48.4 61.7,48.3 61.5,48.2 L58.9,46.9 C58.7,46.8 58.6,46.7 58.5,46.7 C58.4,46.7 58.4,46.7 58.3,46.8 C58.2,46.9 58.1,46.9 58.1,47 L57.9,47.1 Z"></path>
                        <path d="M61.1,50.5 L60.4,51.5 L56,51.7 L58.1,53.3 C58.3,53.5 58.5,53.5 58.6,53.5 C58.7,53.5 58.8,53.4 58.9,53.3 L59,53.2 L59.1,53.3 L58.2,54.6 L58.1,54.5 L58.2,54.4 C58.3,54.2 58.3,54.1 58.3,54 C58.3,53.9 58.2,53.8 57.9,53.7 L54.8,51.4 L54.9,51.3 L59.6,51.1 L57.3,49.4 C57.2,49.1 57,49 56.9,49 C56.8,49 56.7,49.1 56.6,49.2 L56.5,49.3 L56.4,49.2 L57.3,47.9 L57.4,48 L57.3,48.1 C57.2,48.3 57.2,48.4 57.2,48.5 C57.2,48.6 57.3,48.7 57.6,48.8 L60.2,50.7 C60.4,50.7 60.5,50.7 60.6,50.6 C60.7,50.6 60.8,50.5 60.9,50.4 C61,50.4 61,50.3 61.1,50.2 L61.1,50.5 Z"></path>
                        <path d="M55.8,56.6 L54.6,55.3 L53.8,56 C53.6,56.2 53.5,56.3 53.5,56.4 C53.5,56.6 53.6,56.7 53.7,56.9 L53.7,57 L52.6,55.8 L52.7,55.7 L53,56 L53.3,56 C53.4,56 53.5,55.9 53.7,55.8 L54.4,55.1 L53.4,54 L53.1,53.7 L53,53.7 C52.9,53.7 52.9,53.8 52.8,53.8 L52.2,54.3 L51.8,54.7 C51.7,54.8 51.7,54.9 51.7,55.1 C51.7,55.3 51.7,55.5 51.8,55.9 L51.7,56 L51.2,55 L53.8,52.6 L53.9,52.7 L53.8,52.8 C53.7,52.9 53.7,53 53.6,53.1 L53.6,53.3 C53.6,53.4 53.7,53.5 53.9,53.6 L55.9,55.8 C56.1,56 56.2,56.1 56.3,56.1 C56.4,56.1 56.5,56.1 56.7,55.9 L56.8,55.8 L56.9,55.9 L54.3,58.3 L53.6,57.6 L53.7,57.5 C53.9,57.6 54,57.7 54.2,57.8 L54.5,57.8 C54.6,57.8 54.7,57.7 54.9,57.5 L55.8,56.6 Z"></path>
                        <path d="M50.1,61.4 L49.2,60.1 L49.3,60 C49.5,60.2 49.7,60.4 49.9,60.5 C50.1,60.6 50.3,60.6 50.5,60.6 C50.7,60.6 50.9,60.5 51.1,60.4 C51.3,60.3 51.4,60.1 51.5,59.9 C51.5,59.7 51.5,59.5 51.4,59.4 C51.3,59.3 51.2,59.2 51.1,59.2 C50.9,59.1 50.5,59.1 49.9,59.2 C49.4,59.2 49.1,59.3 48.9,59.2 C48.7,59.2 48.5,59.1 48.4,59 C48.2,58.9 48.1,58.8 48,58.6 C47.8,58.3 47.8,58 47.8,57.6 C47.9,57.2 48.1,57 48.5,56.7 C48.6,56.6 48.7,56.6 48.8,56.5 C48.9,56.5 49,56.4 49.2,56.4 C49.4,56.3 49.6,56.3 49.6,56.3 L49.7,56.2 C49.7,56.2 49.7,56.1 49.6,56 L49.7,55.9 L50.6,57.2 L50.5,57.3 C50.3,57.1 50.1,56.9 49.9,56.8 C49.7,56.7 49.5,56.7 49.3,56.7 C49.1,56.7 48.9,56.8 48.7,56.9 C48.5,57.1 48.3,57.2 48.3,57.4 C48.2,57.6 48.3,57.8 48.4,58 C48.5,58.1 48.5,58.2 48.7,58.2 C48.8,58.3 49,58.3 49.1,58.3 L49.9,58.3 L50.9,58.3 C51.1,58.3 51.3,58.4 51.4,58.5 C51.6,58.6 51.7,58.7 51.8,58.9 C52,59.2 52,59.5 51.9,59.8 C51.8,60.1 51.6,60.4 51.3,60.6 C51.1,60.7 50.9,60.8 50.6,60.9 C50.5,60.9 50.4,60.9 50.3,61 L50.2,61.1 L50.2,61.3 L50.1,61.4 Z"></path>
                    </g>
                    <g transform="translate(23.000000, 59.000000)" id="Shape">
                        <path d="M3.6,1.1 L3.4,1 L1.9,1 L1.9,1.3 L2,1.3 C2.2,1.3 2.3,1.3 2.4,1.4 C2.4,1.4 2.5,1.4 2.5,1.5 L2.5,1.6 C2.5,1.7 2.4,1.8 2.3,2.2 L1.3,4.3 C1.1,4.6 1.1,4.7 1.1,4.7 L1,4.7 C1,4.7 1,4.7 0.9,4.7 C0.8,4.7 0.7,4.6 0.5,4.6 L0.4,4.6 L0.3,4.9 L2.2,5.7 L2.3,5.4 L2.2,5.4 C2,5.3 1.9,5.2 1.8,5.2 L1.7,5.1 C1.7,5.1 1.7,5 1.9,4.7 L3.6,1.1 Z"></path>
                        <path d="M7.7,2.4 C7.2,2.3 6.7,2.5 6.3,2.8 C6,3.1 5.8,3.4 5.7,3.8 C5.6,4.2 5.7,4.6 5.9,4.9 C6.1,5.2 6.4,5.4 6.8,5.4 C7.1,5.4 7.4,5.4 7.8,5.3 C7.6,5.6 7.4,5.8 7.2,6 C6.9,6.3 6.6,6.4 6.3,6.5 C6,6.6 5.7,6.6 5.4,6.6 L5.3,6.6 L5.3,6.9 L5.6,6.9 L5.8,6.9 C6.2,6.9 6.6,6.9 7,6.7 C7.5,6.5 8,6.2 8.4,5.8 C8.8,5.4 9,5 9.1,4.5 C9.2,3.9 9.1,3.4 8.8,3 C8.5,2.7 8.1,2.4 7.7,2.4 Z M8.2,4.2 C8.2,4.4 8.1,4.6 8,4.8 C7.9,4.9 7.8,4.9 7.6,4.9 L7.2,4.9 C7,4.9 6.8,4.8 6.7,4.6 C6.5,4.3 6.5,4 6.5,3.6 C6.6,3.3 6.7,3.1 6.8,2.9 C7,2.8 7.1,2.7 7.3,2.7 L7.3,2.7 C7.5,2.7 7.6,2.8 7.7,2.9 C7.8,3 7.9,3.2 7.9,3.5 C8.2,3.8 8.2,4 8.2,4.2 Z"></path>
                        <path d="M13.6,2.8 C13.2,2.5 12.8,2.3 12.4,2.4 C12.1,2.4 11.9,2.5 11.7,2.7 C11.4,2.9 11.2,3.2 11.1,3.6 C11,4 10.9,4.4 11,4.9 C11.1,5.5 11.3,6 11.6,6.4 C12,6.8 12.4,7 12.8,7 L13,7 C13.3,7 13.5,6.9 13.8,6.7 C14.1,6.5 14.3,6.2 14.4,5.8 C14.5,5.4 14.6,5 14.5,4.5 C14.3,3.8 14,3.2 13.6,2.8 Z M12.5,2.8 C12.6,2.8 12.7,2.8 12.8,2.9 C12.9,3 13.1,3.1 13.2,3.4 C13.4,3.7 13.5,4.1 13.5,4.6 C13.6,5.3 13.6,5.8 13.5,6.2 C13.5,6.4 13.4,6.6 13.3,6.7 C13.2,6.8 13.1,6.9 12.9,6.9 C12.9,6.9 12.9,6.9 12.8,6.9 C12.6,6.9 12.4,6.8 12.3,6.5 C12,6 11.9,5.6 11.8,5 C11.8,4.6 11.7,4.3 11.8,3.9 C11.8,3.5 11.9,3.3 12.1,3.1 C12.1,2.9 12.3,2.8 12.5,2.8 C12.4,2.8 12.5,2.8 12.5,2.8 Z"></path>
                        <path d="M19.9,3.8 C19.8,3.6 19.6,3.4 19.3,3.2 C19.1,3.1 18.8,3 18.3,2.9 C18.6,2.6 18.7,2.3 18.8,2.1 C18.9,1.9 18.8,1.7 18.8,1.5 C18.7,1.3 18.5,1.1 18.1,1 C17.8,0.9 17.4,1 17,1.1 C16.6,1.3 16.3,1.5 16.2,1.8 C16,2.1 16,2.4 16.2,2.7 C16.3,2.9 16.4,3 16.6,3.2 C16.8,3.3 17.1,3.4 17.5,3.5 C17.3,3.8 17.2,4.1 17.1,4.3 C17,4.6 17.1,4.8 17.1,5 C17.2,5.2 17.4,5.4 17.7,5.5 C17.9,5.6 18.2,5.6 18.4,5.6 C18.6,5.6 18.8,5.5 19,5.4 C19.4,5.2 19.7,5 19.9,4.6 C20,4.4 20,4.1 19.9,3.8 Z M17.6,4.2 C17.6,4 17.7,3.8 17.8,3.7 C18.4,3.8 18.8,3.9 19.1,4.1 L19.4,4.4 C19.5,4.5 19.5,4.7 19.4,4.9 C19.3,5.1 19.2,5.2 18.9,5.3 C18.8,5.3 18.7,5.4 18.6,5.4 L18.2,5.4 C18,5.3 17.8,5.2 17.7,4.9 C17.6,4.6 17.6,4.4 17.6,4.2 Z M17.4,1.4 L17.7,1.4 C17.9,1.5 18,1.6 18.1,1.8 C18.2,1.9 18.2,2.1 18.2,2.2 C18.2,2.3 18.1,2.6 18,2.8 L17.3,2.7 C17.2,2.7 17,2.6 16.9,2.5 C16.8,2.4 16.7,2.4 16.7,2.3 C16.6,2.2 16.6,2 16.7,1.9 C16.8,1.7 16.9,1.6 17.1,1.5 C17.2,1.5 17.3,1.5 17.4,1.4 Z"></path>
                    </g>
                </g>
            </g>
        </g>
    </g>
</svg>
